<svg xmlns="http://www.w3.org/2000/svg" xmlns:xlink="http://www.w3.org/1999/xlink" xmlns:inkscape="http://www.inkscape.org/namespaces/inkscape" version="1.1" width="485" height="123.80562" viewBox="0 0 485 123.80562">
<defs>
<clipPath id="clip_1">
<path transform="matrix(1,0,0,-1,-54.99997,614.22219)" d="M55 490.4166H540V614.2222H55Z"/>
</clipPath>
<clipPath id="clip_2">
<path transform="matrix(1,0,0,-1,-54.99997,614.22219)" d="M0 0H595.276V841.89H0Z"/>
</clipPath>
<clipPath id="clip_3">
<path transform="matrix(.97815,0,0,-.97815,23.261036,107.55118)" d="M0 0H115.198V100.387H0Z"/>
</clipPath>
<clipPath id="clip_4">
<path transform="matrix(.97815,0,0,-.97815,23.261036,107.554119)" d="M0 0H115.2V100.39H0Z"/>
</clipPath>
<clipPath id="clip_5">
<path transform="matrix(.97815,0,0,-.97815,23.262993,107.554119)" d="M0 0H115.19766V100.38716H0V0Z"/>
</clipPath>
<clipPath id="clip_6">
<path transform="matrix(.97763,0,0,-.97763,173.49703,107.55118)" d="M0 0H115.258V100.449H0Z"/>
</clipPath>
<clipPath id="clip_7">
<path transform="matrix(.97763,0,0,-.97763,173.49703,107.552158)" d="M0 0H115.26V100.45H0Z"/>
</clipPath>
<clipPath id="clip_8">
<path transform="matrix(.97763,0,0,-.97763,173.498,107.552158)" d="M0 0H115.25842V100.44853H0V0Z"/>
</clipPath>
<clipPath id="clip_9">
<path transform="matrix(.97763,0,0,-.97763,323.734,107.55118)" d="M0 0H115.258V100.449H0Z"/>
</clipPath>
<clipPath id="clip_10">
<path transform="matrix(.97763,0,0,-.97763,323.734,107.552158)" d="M0 0H115.26V100.45H0Z"/>
</clipPath>
<clipPath id="clip_11">
<path transform="matrix(.97763,0,0,-.97763,323.735,107.552158)" d="M0 0H115.25842V100.44853H0V0Z"/>
</clipPath>
<clipPath id="clip_12">
<path transform="matrix(.9771,0,0,-.9771,23.261036,428.11219)" d="M0 0H115.319V100.51H0Z"/>
</clipPath>
<clipPath id="clip_13">
<path transform="matrix(.9771,0,0,-.9771,23.261036,428.11219)" d="M0 0H115.32V100.51H0Z"/>
</clipPath>
<clipPath id="clip_14">
<path transform="matrix(.9771,0,0,-.9771,23.261036,428.11219)" d="M0 0H115.31925V100.50997H0V0Z"/>
</clipPath>
<clipPath id="clip_15">
<path transform="matrix(.97815,0,0,-.97815,173.49703,428.11219)" d="M0 0H115.198V100.387H0Z"/>
</clipPath>
<clipPath id="clip_16">
<path transform="matrix(.97815,0,0,-.97815,173.49703,428.1151)" d="M0 0H115.2V100.39H0Z"/>
</clipPath>
<clipPath id="clip_17">
<path transform="matrix(.97815,0,0,-.97815,173.49898,428.1151)" d="M0 0H115.19766V100.38716H0V0Z"/>
</clipPath>
<clipPath id="clip_18">
<path transform="matrix(.97763,0,0,-.97763,323.734,428.11219)" d="M0 0H115.258V100.449H0Z"/>
</clipPath>
<clipPath id="clip_19">
<path transform="matrix(.97763,0,0,-.97763,323.734,428.11317)" d="M0 0H115.26V100.45H0Z"/>
</clipPath>
<clipPath id="clip_20">
<path transform="matrix(.97763,0,0,-.97763,323.735,428.11317)" d="M0 0H115.25842V100.44853H0V0Z"/>
</clipPath>
</defs>
<g clip-path="url(#clip_1)">
<g clip-path="url(#clip_2)">
<path transform="matrix(1,0,0,-1,-54.99997,614.22219)" d="M0 0H595.276V841.89H0Z" fill="#ebf4f7"/>
<text fill="#0e4182" xml:space="preserve" transform="matrix(1 0 -0 1 -54.99997 614.22219)" font-size="11.9552" font-family="F42"><tspan y="-778.393" x="56.693 64.97795 71.46963 77.31572 83.807399 90.29907 96.145168 101.99126 107.19177 113.36066 123.10414 133.816 139.6621 144.20508 150.69675 157.18842 161.73139 167.57749 172.12046">&#x0411;&#x0438;&#x0431;&#x043b;&#x0438;&#x043e;&#x0442;&#x0435;&#x043a;&#x0430;MathStart</tspan></text>
<text fill="#0e4182" xml:space="preserve" transform="matrix(1 0 -0 1 -54.99997 614.22219)" font-size="11.9552" font-family="F42"><tspan y="-778.393" x="375.586 382.89064 389.3823 395.55119 402.04286 408.53453 418.278 428.98988 434.83598 439.37895 445.8706 452.36228 456.90525 462.75135 467.2943 475.73469 484.01963 493.11753 498.96363 505.4553 510.9786 516.8247 523.3164 529.1625">&#x0413;&#x0440;&#x0443;&#x043f;&#x043f;&#x0430;MathStart&#x0412;&#x041a;&#x043e;&#x043d;&#x0442;&#x0430;&#x043a;&#x0442;&#x0435;</tspan></text>
<path transform="matrix(1,0,0,-1,1.6930313,-159.63782)" stroke-width=".398" stroke-linecap="butt" stroke-miterlimit="10" stroke-linejoin="miter" fill="none" stroke="#0e4182" d="M0 0H481.89"/>
<path transform="matrix(1,0,0,-1,1.6930313,160.99317)" d="M0 0V300.63645H481.89598V0Z" fill="#aecbe8"/>
<path transform="matrix(1,0,0,-1,1.6930313,160.99317)" d="M1.41731 1.41731V261.7318H480.47868V1.41731Z" fill="#ffffff"/>
<text fill="#ffffff" xml:space="preserve" transform="matrix(1 0 -0 1 -54.999967 614.22219)" font-size="14.3462" font-family="F89"><tspan y="-731.421" x="72.283 84.190349 92.94153 100.8176 109.56878 117.44484 129.51 137.38607 145.26213 149.63773 157.5138 161.88939 169.76546">&#x0410;&#x043d;&#x0430;&#x043b;&#x043e;&#x0433;11.9.4.</tspan></text>
<path transform="matrix(1,0,0,-1,307.75605,-104.98682)" d="M2.5512-2.5512V27.84944H87.59163V-2.5512Z" fill="#0e4182" fill-opacity=".5"/>
<path transform="matrix(1,0,0,-1,307.75605,-104.98682)" d="M0 0V30.40063H85.04045V0Z" fill="#0e4182"/>
<path transform="matrix(1,0,0,-1,307.75605,-104.98682)" d="M1.41731 1.41731V28.9833H83.62312V1.41731Z" fill="#ffffff"/>
<text fill="#0e4182" xml:space="preserve" transform="matrix(1 0 -0 1 -54.99997 614.22219)" font-size="11.9552" font-family="F42"><tspan y="-731.455" x="379.27 388.3679 394.85957 400.70567 406.55177 412.39787 418.24397 424.73564">&#x041f;&#x0440;&#x043e;&#x0442;&#x043e;&#x0442;&#x0438;&#x043f;</tspan></text>
<path transform="matrix(1,0,0,-1,402.79505,-106.14882)" d="M2.5512-2.5512V25.52536H67.74895V-2.5512Z" fill="#0e4182" fill-opacity=".5"/>
<path transform="matrix(1,0,0,-1,402.79505,-106.14882)" d="M0 0V28.07655H65.19777V0Z" fill="#0e4182"/>
<path transform="matrix(1,0,0,-1,402.79505,-106.14882)" d="M1.41731 1.41731V26.65923H63.78044V1.41731Z" fill="#ffffff"/>
<text fill="#0e4182" xml:space="preserve" transform="matrix(1 0 -0 1 -54.99994 614.2222)" font-size="11.9552" font-family="F42"><tspan y="-730.293" x="474.464 483.5619 489.408 495.2541 500.4546">&#x041e;&#x0442;&#x0432;&#x0435;&#x0442;</tspan></text>
<text xml:space="preserve" transform="matrix(1 0 -0 1 -54.999967 614.22219)" font-size="11.9552" font-family="F42"><tspan y="-698.22" x="72.283 80.065837 85.278308 90.78965 96.63574 103.12742 108.97351 114.8196 121.31128 127.15737 138.46698 143.6675 149.5136 155.3597 161.2058 167.0519 172.25241 178.09851 183.29903 189.14513 194.99123 201.4829 212.79251 220.5873 225.78781 235.5313 242.02297 254.289 263.3869 269.233 275.72468 283.51948 289.0428 295.53446 301.38056 309.17536 315.66703 325.00404 330.20454 336.0626 342.5423 348.3884 357.1635 366.59617 373.07588 380.88264 393.47145 402.56935 408.73823 415.2299 421.72157 428.21324 434.7049 441.19657 450.54554 463.13435 468.33485 474.8265 480.6726 489.7705 496.26219 502.43107 508.27717 516.07199">&#x0423;&#x0441;&#x0442;&#x0430;&#x043d;&#x043e;&#x0432;&#x0438;&#x0442;&#x0435;&#x0441;&#x043e;&#x043e;&#x0442;&#x0432;&#x0435;&#x0442;&#x0441;&#x0442;&#x0432;&#x0438;&#x0435;&#x043c;&#x0435;&#x0436;&#x0434;&#x0443;&#x0444;&#x043e;&#x0440;&#x043c;&#x0443;&#x043b;&#x0430;&#x043c;&#x0438;,&#x0437;&#x0430;&#x0434;&#x0430;&#x044e;&#x0449;&#x0438;&#x043c;&#x0438;&#x0444;&#x0443;&#x043d;&#x043a;&#x0446;&#x0438;&#x0438;,&#x0438;&#x0433;&#x0440;&#x0430;&#x0444;&#x0438;&#x043a;&#x0430;&#x043c;&#x0438;</tspan><tspan y="-683.774" x="72.283 77.48351 83.329608 89.82128 99.88756 108.985469 115.15435 121.64603 128.1377 134.62937 141.12104 147.6127">&#x044d;&#x0442;&#x0438;&#x0445;&#x0444;&#x0443;&#x043d;&#x043a;&#x0446;&#x0438;&#x0439;.</tspan></text>
<text xml:space="preserve" transform="matrix(1 0 -0 1 -54.999967 614.22219)" font-size="11.9552" font-family="F70"><tspan y="-666.221" x="72.283 83.485019 93.5752 102.7568 115.501049 124.90978 135.43036">&#x0424;&#x041e;&#x0420;&#x041c;&#x0423;&#x041b;&#x042b;</tspan></text>
<path transform="matrix(1,0,0,-1,17.283032,-50.32483)" stroke-width=".478" stroke-linecap="butt" stroke-miterlimit="10" stroke-linejoin="miter" fill="none" stroke="#000000" d="M0 0H76.32"/>
<text xml:space="preserve" transform="matrix(1 0 -0 1 -54.999967 614.22219)" font-size="11.9552" font-family="F42"><tspan y="-637.079" x="121.7 130.46317">&#x0410;)</tspan></text>
<text xml:space="preserve" transform="matrix(1 0 -0 1 -54.999967 614.22219)" font-size="11.9552" font-family="CMMI12" font-style="italic"><tspan y="-637.079" x="138.90354">&#x1d466;</tspan></text>
<text xml:space="preserve" transform="matrix(1 0 -0 1 -54.999967 614.22219)" font-size="11.9552" font-family="CMR12"><tspan y="-637.079" x="148.3601">=</tspan><tspan y="-645.16598" x="162.40399">1</tspan></text>
<path transform="matrix(1,0,0,-1,107.00403,-25.844849)" stroke-width=".478" stroke-linecap="butt" stroke-miterlimit="10" stroke-linejoin="miter" fill="none" stroke="#000000" d="M0 0H6.652"/>
<text xml:space="preserve" transform="matrix(1 0 -0 1 -54.999967 614.22219)" font-size="11.9552" font-family="CMMI12" font-style="italic"><tspan y="-628.878" x="162.004">&#x1d465;</tspan></text>
<text xml:space="preserve" transform="matrix(1 0 -0 1 -54.999967 614.22219)" font-size="11.9552" font-family="F42"><tspan y="-637.079" x="169.852 263.23408 271.519">;&#x0411;)</tspan></text>
<text xml:space="preserve" transform="matrix(1 0 -0 1 -54.999967 614.22219)" font-size="11.9552" font-family="CMMI12" font-style="italic"><tspan y="-637.079" x="279.95939">&#x1d466;</tspan></text>
<text xml:space="preserve" transform="matrix(1 0 -0 1 -54.999967 614.22219)" font-size="11.9552" font-family="CMR12"><tspan y="-637.079" x="289.404">=</tspan></text>
<text xml:space="preserve" transform="matrix(1 0 -0 1 -54.999967 614.22219)" font-size="11.9552" font-family="CMMI12" font-style="italic"><tspan y="-637.079" x="301.8374">&#x1d465;</tspan></text>
<text xml:space="preserve" transform="matrix(1 0 -0 1 -54.999967 614.22219)" font-size="11.9552" font-family="CMR12"><tspan y="-637.079" x="311.13856 322.91444">+1</tspan></text>
<text xml:space="preserve" transform="matrix(1 0 -0 1 -54.999967 614.22219)" font-size="11.9552" font-family="F42"><tspan y="-637.079" x="328.7725 388.83543 397.12037">;&#x0412;)</tspan></text>
<text xml:space="preserve" transform="matrix(1 0 -0 1 -54.999967 614.22219)" font-size="11.9552" font-family="CMMI12" font-style="italic"><tspan y="-637.079" x="405.5727">&#x1d466;</tspan></text>
<text xml:space="preserve" transform="matrix(1 0 -0 1 -54.999967 614.22219)" font-size="11.9552" font-family="CMR12"><tspan y="-637.079" x="415.0173 427.4507">=2</tspan></text>
<text xml:space="preserve" transform="matrix(1 0 -0 1 -54.999967 614.22219)" font-size="11.9552" font-family="CMMI12" font-style="italic"><tspan y="-637.079" x="433.30879">&#x1d465;</tspan></text>
<text xml:space="preserve" transform="matrix(1 0 -0 1 -54.999967 614.22219)" font-size="7.9701" font-family="CMR8"><tspan y="-641.417" x="439.997">2</tspan></text>
<text xml:space="preserve" transform="matrix(1 0 -0 1 -54.999967 614.22219)" font-size="11.9552" font-family="CMR12"><tspan y="-637.079" x="447.38603 459.14994 465.008">+14</tspan></text>
<text xml:space="preserve" transform="matrix(1 0 -0 1 -54.999967 614.22219)" font-size="11.9552" font-family="CMMI12" font-style="italic"><tspan y="-637.079" x="470.86607">&#x1d465;</tspan></text>
<text xml:space="preserve" transform="matrix(1 0 -0 1 -54.999967 614.22219)" font-size="11.9552" font-family="CMR12"><tspan y="-637.079" x="480.1672 491.94309 497.78919">+24</tspan></text>
<text xml:space="preserve" transform="matrix(1 0 -0 1 -54.999967 614.22219)" font-size="11.9552" font-family="F42"><tspan y="-637.079" x="503.64726">.</tspan></text>
<text xml:space="preserve" transform="matrix(1 0 -0 1 -54.999967 614.22219)" font-size="11.9552" font-family="F70"><tspan y="-618.22299" x="72.28302 80.35278 88.41059 98.18994 109.39197 119.912548 130.43312">&#x0413;&#x0420;&#x0410;&#x0424;&#x0418;&#x041a;&#x0418;</tspan></text>
<path transform="matrix(1,0,0,-1,17.283032,-2.3268433)" stroke-width=".478" stroke-linecap="butt" stroke-miterlimit="10" stroke-linejoin="miter" fill="none" stroke="#000000" d="M0 0H68.712"/>
<g clip-path="url(#clip_3)">
<g clip-path="url(#clip_4)">
<path transform="matrix(.097815,0,0,-.097815,23.261036,107.554119)" stroke-width="5" stroke-linecap="round" stroke-linejoin="round" fill="none" stroke="#aaaaaa" d="M144.445 4.96875V998.902"/>
<path transform="matrix(.097815,0,0,-.097815,23.261036,107.554119)" stroke-width="5" stroke-linecap="round" stroke-linejoin="round" fill="none" stroke="#aaaaaa" d="M243.84 4.96875V998.902"/>
<path transform="matrix(.097815,0,0,-.097815,23.261036,107.554119)" stroke-width="5" stroke-linecap="round" stroke-linejoin="round" fill="none" stroke="#aaaaaa" d="M343.234 4.96875V998.902"/>
<path transform="matrix(.097815,0,0,-.097815,23.261036,107.554119)" stroke-width="5" stroke-linecap="round" stroke-linejoin="round" fill="none" stroke="#aaaaaa" d="M442.625 4.96875V998.902"/>
<path transform="matrix(.097815,0,0,-.097815,23.261036,107.554119)" stroke-width="5" stroke-linecap="round" stroke-linejoin="round" fill="none" stroke="#aaaaaa" d="M542.02 4.96875V998.902"/>
<path transform="matrix(.097815,0,0,-.097815,23.261036,107.554119)" stroke-width="5" stroke-linecap="round" stroke-linejoin="round" fill="none" stroke="#aaaaaa" d="M641.414 4.96875V998.902"/>
<path transform="matrix(.097815,0,0,-.097815,23.261036,107.554119)" stroke-width="5" stroke-linecap="round" stroke-linejoin="round" fill="none" stroke="#aaaaaa" d="M740.805 4.96875V998.902"/>
<path transform="matrix(.097815,0,0,-.097815,23.261036,107.554119)" stroke-width="5" stroke-linecap="round" stroke-linejoin="round" fill="none" stroke="#aaaaaa" d="M840.199 4.96875V998.902"/>
<path transform="matrix(.097815,0,0,-.097815,23.261036,107.554119)" stroke-width="5" stroke-linecap="round" stroke-linejoin="round" fill="none" stroke="#aaaaaa" d="M939.594 4.96875V998.902"/>
<path transform="matrix(.097815,0,0,-.097815,23.261036,107.554119)" stroke-width="5" stroke-linecap="round" stroke-linejoin="round" fill="none" stroke="#aaaaaa" d="M1038.98 4.96875V998.902"/>
<path transform="matrix(.097815,0,0,-.097815,23.261036,107.554119)" stroke-width="5" stroke-linecap="round" stroke-linejoin="round" fill="none" stroke="#aaaaaa" d="M1138.38 4.96875V998.902"/>
<path transform="matrix(.097815,0,0,-.097815,23.261036,107.554119)" stroke-width="5" stroke-linecap="round" stroke-linejoin="round" fill="none" stroke="#aaaaaa" d="M144.445 4.96875H1138.38"/>
<path transform="matrix(.097815,0,0,-.097815,23.261036,107.554119)" stroke-width="5" stroke-linecap="round" stroke-linejoin="round" fill="none" stroke="#aaaaaa" d="M144.445 104.363H1138.38"/>
<path transform="matrix(.097815,0,0,-.097815,23.261036,107.554119)" stroke-width="5" stroke-linecap="round" stroke-linejoin="round" fill="none" stroke="#aaaaaa" d="M144.445 203.758H1138.38"/>
<path transform="matrix(.097815,0,0,-.097815,23.261036,107.554119)" stroke-width="5" stroke-linecap="round" stroke-linejoin="round" fill="none" stroke="#aaaaaa" d="M144.445 303.148H1138.38"/>
<path transform="matrix(.097815,0,0,-.097815,23.261036,107.554119)" stroke-width="5" stroke-linecap="round" stroke-linejoin="round" fill="none" stroke="#aaaaaa" d="M144.445 402.543H1138.38"/>
<path transform="matrix(.097815,0,0,-.097815,23.261036,107.554119)" stroke-width="5" stroke-linecap="round" stroke-linejoin="round" fill="none" stroke="#aaaaaa" d="M144.445 501.938H1138.38"/>
<path transform="matrix(.097815,0,0,-.097815,23.261036,107.554119)" stroke-width="5" stroke-linecap="round" stroke-linejoin="round" fill="none" stroke="#aaaaaa" d="M144.445 601.328H1138.38"/>
<path transform="matrix(.097815,0,0,-.097815,23.261036,107.554119)" stroke-width="5" stroke-linecap="round" stroke-linejoin="round" fill="none" stroke="#aaaaaa" d="M144.445 700.723H1138.38"/>
<path transform="matrix(.097815,0,0,-.097815,23.261036,107.554119)" stroke-width="5" stroke-linecap="round" stroke-linejoin="round" fill="none" stroke="#aaaaaa" d="M144.445 800.117H1138.38"/>
<path transform="matrix(.097815,0,0,-.097815,23.261036,107.554119)" stroke-width="5" stroke-linecap="round" stroke-linejoin="round" fill="none" stroke="#aaaaaa" d="M144.445 899.508H1138.38"/>
<path transform="matrix(.097815,0,0,-.097815,23.261036,107.554119)" stroke-width="5" stroke-linecap="round" stroke-linejoin="round" fill="none" stroke="#aaaaaa" d="M144.445 998.902H1138.38"/>
<path transform="matrix(.097815,0,0,-.097815,23.261036,107.554119)" stroke-width="5" stroke-linecap="round" stroke-linejoin="round" fill="none" stroke="#000000" d="M1098.38 501.938H144.445"/>
<path transform="matrix(.097815,0,0,-.097815,23.261036,107.554119)" d="M1138.38 501.938C1114.37 504.035 1090.79 509.617 1068.38 518.504L1098.38 501.938 1068.38 485.367C1090.79 494.254 1114.37 499.836 1138.38 501.938"/>
<path transform="matrix(.097815,0,0,-.097815,23.261036,107.554119)" stroke-width="5" stroke-linecap="round" stroke-linejoin="round" fill="none" stroke="#000000" d="M1138.38 501.938C1114.37 504.035 1090.79 509.617 1068.38 518.504L1098.38 501.938 1068.38 485.367C1090.79 494.254 1114.37 499.836 1138.38 501.938Z"/>
<path transform="matrix(.097815,0,0,-.097815,23.261036,107.554119)" stroke-width="10" stroke-linecap="round" stroke-linejoin="round" fill="none" stroke="#000000" d="M144.445 501.938H1138.38"/>
<path transform="matrix(.097815,0,0,-.097815,23.261036,107.554119)" stroke-width="5" stroke-linecap="round" stroke-linejoin="round" fill="none" stroke="#000000" d="M641.414 958.902V4.96875"/>
<path transform="matrix(.097815,0,0,-.097815,23.261036,107.554119)" d="M641.414 998.902C639.313 974.891 633.73 951.309 624.844 928.902L641.414 958.902 657.98 928.902C649.094 951.309 643.512 974.891 641.414 998.902"/>
<path transform="matrix(.097815,0,0,-.097815,23.261036,107.554119)" stroke-width="5" stroke-linecap="round" stroke-linejoin="round" fill="none" stroke="#000000" d="M641.414 998.902C639.313 974.891 633.73 951.309 624.844 928.902L641.414 958.902 657.98 928.902C649.094 951.309 643.512 974.891 641.414 998.902Z"/>
<path transform="matrix(.097815,0,0,-.097815,23.261036,107.554119)" stroke-width="10" stroke-linecap="round" stroke-linejoin="round" fill="none" stroke="#000000" d="M641.414 4.96875V998.902"/>
<path transform="matrix(.097815,0,0,-.097815,23.261036,107.554119)" stroke-width="5" stroke-linecap="round" stroke-linejoin="round" fill="none" stroke="#000000" d="M144.445 482.059 149.406 481.855 154.367 481.652 159.324 481.445 164.285 481.23 169.246 481.012 174.203 480.789 179.164 480.563 184.125 480.332 189.082 480.094 194.043 479.852 199.004 479.605 203.961 479.352 208.922 479.094 213.883 478.828 218.844 478.559 223.801 478.281 228.762 477.996 233.723 477.703 238.68 477.406 243.641 477.102 248.602 476.785 253.559 476.465 258.52 476.137 263.48 475.797 268.438 475.449 273.398 475.09 278.359 474.727 283.32 474.348 288.277 473.961 293.238 473.563 298.199 473.152 303.156 472.73 308.117 472.297 313.078 471.848 318.035 471.387 322.996 470.91 327.957 470.418 332.914 469.914 337.875 469.391 342.836 468.848 347.793 468.289 352.754 467.711 357.715 467.113 362.676 466.492 367.633 465.852 372.594 465.188 377.555 464.496 382.512 463.777 387.473 463.031 392.434 462.258 397.391 461.453 402.352 460.613 407.313 459.734 412.27 458.824 417.23 457.867 422.191 456.871 427.148 455.828 432.109 454.734 437.07 453.59 442.031 452.387 446.988 451.125 451.949 449.793 456.91 448.391 461.867 446.914 466.828 445.352 471.789 443.695 476.746 441.941 481.707 440.078 486.668 438.094 491.625 435.98 496.586 433.723 501.547 431.305 506.508 428.707 511.465 425.914 516.426 422.895 521.387 419.629 526.344 416.082 531.305 412.215 536.266 407.984 541.223 403.332 546.184 398.195 551.145 392.496 556.102 386.133 561.063 378.984 566.023 370.898 570.98 361.668 575.941 351.043 580.902 338.676 585.863 324.098 590.82 306.664 595.781 285.441 600.742 259.039 605.699 225.305 610.66 180.691 615.621 118.918 620.578 27.7305 625.539-120.438 630.5-403.285 635.457-1157.38 640.418-9437.39"/>
<path transform="matrix(.097815,0,0,-.097815,23.261036,107.554119)" stroke-width="5" stroke-linecap="round" stroke-linejoin="round" fill="none" stroke="#000000" d="M642.406 10441.3 647.367 2161.25 652.324 1407.16 657.285 1124.31 662.246 976.141 667.203 884.953 672.164 823.18 677.125 778.566 682.086 744.832 687.043 718.434 692.004 697.207 696.965 679.773 701.922 665.195 706.883 652.828 711.844 642.203 716.801 632.977 721.762 624.887 726.723 617.738 731.68 611.375 736.641 605.676 741.602 600.539 746.559 595.891 751.52 591.656 756.48 587.789 761.441 584.242 766.398 580.977 771.359 577.961 776.32 575.164 781.277 572.566 786.238 570.148 791.199 567.891 796.156 565.777 801.117 563.793 806.078 561.93 811.035 560.176 815.996 558.523 820.957 556.957 825.918 555.48 830.875 554.078 835.836 552.746 840.797 551.484 845.754 550.281 850.715 549.137 855.676 548.043 860.633 547 865.594 546.004 870.555 545.051 875.512 544.137 880.473 543.262 885.434 542.422 890.391 541.613 895.352 540.84 900.313 540.094 905.273 539.375 910.23 538.684 915.191 538.02 920.152 537.379 925.109 536.758 930.07 536.16 935.031 535.582 939.988 535.023 944.949 534.48 949.91 533.957 954.867 533.453 959.828 532.961 964.789 532.484 969.746 532.023 974.707 531.578 979.668 531.141 984.629 530.719 989.586 530.309 994.547 529.91 999.508 529.523 1004.46 529.148 1009.43 528.781 1014.39 528.422 1019.34 528.074 1024.3 527.738 1029.27 527.406 1034.22 527.086 1039.18 526.773 1044.14 526.465 1049.11 526.168 1054.06 525.875 1059.02 525.594 1063.98 525.313 1068.94 525.043 1073.9 524.777 1078.86 524.52 1083.82 524.266 1088.78 524.02 1093.74 523.777 1098.7 523.539 1103.66 523.309 1108.62 523.082 1113.58 522.859 1118.54 522.641 1123.5 522.43 1128.46 522.219 1133.42 522.016 1138.38 521.816"/>
</g>
<g clip-path="url(#clip_5)">
<text xml:space="preserve" transform="matrix(.97815 0 -0 .97815 23.261036 107.55118)" font-size="11.9552" font-family="CMR12"><tspan y="-88.377" x="1.498 7.3560488">1)</tspan></text>
<text xml:space="preserve" transform="matrix(.97815 0 -0 .97815 23.261036 107.55118)" font-size="11.9552" font-family="CMR12"><tspan y="-40.824" x="67.381">0</tspan></text>
<text xml:space="preserve" transform="matrix(.97815 0 -0 .97815 23.261036 107.55118)" font-size="11.9552" font-family="CMMI12" font-style="italic"><tspan y="-41.446" x="107.052">x</tspan></text>
<text xml:space="preserve" transform="matrix(.97815 0 -0 .97815 23.261036 107.55118)" font-size="11.9552" font-family="CMMI12" font-style="italic"><tspan y="-94.076" x="54.409">y</tspan></text>
</g>
</g>
<g clip-path="url(#clip_6)">
<g clip-path="url(#clip_7)">
<path transform="matrix(.097763,0,0,-.097763,173.49703,107.552158)" stroke-width="5" stroke-linecap="round" stroke-linejoin="round" fill="none" stroke="#aaaaaa" d="M144.445 4.97266V999.512"/>
<path transform="matrix(.097763,0,0,-.097763,173.49703,107.552158)" stroke-width="5" stroke-linecap="round" stroke-linejoin="round" fill="none" stroke="#aaaaaa" d="M243.898 4.97266V999.512"/>
<path transform="matrix(.097763,0,0,-.097763,173.49703,107.552158)" stroke-width="5" stroke-linecap="round" stroke-linejoin="round" fill="none" stroke="#aaaaaa" d="M343.355 4.97266V999.512"/>
<path transform="matrix(.097763,0,0,-.097763,173.49703,107.552158)" stroke-width="5" stroke-linecap="round" stroke-linejoin="round" fill="none" stroke="#aaaaaa" d="M442.809 4.97266V999.512"/>
<path transform="matrix(.097763,0,0,-.097763,173.49703,107.552158)" stroke-width="5" stroke-linecap="round" stroke-linejoin="round" fill="none" stroke="#aaaaaa" d="M542.262 4.97266V999.512"/>
<path transform="matrix(.097763,0,0,-.097763,173.49703,107.552158)" stroke-width="5" stroke-linecap="round" stroke-linejoin="round" fill="none" stroke="#aaaaaa" d="M641.715 4.97266V999.512"/>
<path transform="matrix(.097763,0,0,-.097763,173.49703,107.552158)" stroke-width="5" stroke-linecap="round" stroke-linejoin="round" fill="none" stroke="#aaaaaa" d="M741.172 4.97266V999.512"/>
<path transform="matrix(.097763,0,0,-.097763,173.49703,107.552158)" stroke-width="5" stroke-linecap="round" stroke-linejoin="round" fill="none" stroke="#aaaaaa" d="M840.625 4.97266V999.512"/>
<path transform="matrix(.097763,0,0,-.097763,173.49703,107.552158)" stroke-width="5" stroke-linecap="round" stroke-linejoin="round" fill="none" stroke="#aaaaaa" d="M940.078 4.97266V999.512"/>
<path transform="matrix(.097763,0,0,-.097763,173.49703,107.552158)" stroke-width="5" stroke-linecap="round" stroke-linejoin="round" fill="none" stroke="#aaaaaa" d="M1039.53 4.97266V999.512"/>
<path transform="matrix(.097763,0,0,-.097763,173.49703,107.552158)" stroke-width="5" stroke-linecap="round" stroke-linejoin="round" fill="none" stroke="#aaaaaa" d="M1138.98 4.97266V999.512"/>
<path transform="matrix(.097763,0,0,-.097763,173.49703,107.552158)" stroke-width="5" stroke-linecap="round" stroke-linejoin="round" fill="none" stroke="#aaaaaa" d="M144.445 4.97266H1138.98"/>
<path transform="matrix(.097763,0,0,-.097763,173.49703,107.552158)" stroke-width="5" stroke-linecap="round" stroke-linejoin="round" fill="none" stroke="#aaaaaa" d="M144.445 104.426H1138.98"/>
<path transform="matrix(.097763,0,0,-.097763,173.49703,107.552158)" stroke-width="5" stroke-linecap="round" stroke-linejoin="round" fill="none" stroke="#aaaaaa" d="M144.445 203.879H1138.98"/>
<path transform="matrix(.097763,0,0,-.097763,173.49703,107.552158)" stroke-width="5" stroke-linecap="round" stroke-linejoin="round" fill="none" stroke="#aaaaaa" d="M144.445 303.336H1138.98"/>
<path transform="matrix(.097763,0,0,-.097763,173.49703,107.552158)" stroke-width="5" stroke-linecap="round" stroke-linejoin="round" fill="none" stroke="#aaaaaa" d="M144.445 402.789H1138.98"/>
<path transform="matrix(.097763,0,0,-.097763,173.49703,107.552158)" stroke-width="5" stroke-linecap="round" stroke-linejoin="round" fill="none" stroke="#aaaaaa" d="M144.445 502.242H1138.98"/>
<path transform="matrix(.097763,0,0,-.097763,173.49703,107.552158)" stroke-width="5" stroke-linecap="round" stroke-linejoin="round" fill="none" stroke="#aaaaaa" d="M144.445 601.695H1138.98"/>
<path transform="matrix(.097763,0,0,-.097763,173.49703,107.552158)" stroke-width="5" stroke-linecap="round" stroke-linejoin="round" fill="none" stroke="#aaaaaa" d="M144.445 701.152H1138.98"/>
<path transform="matrix(.097763,0,0,-.097763,173.49703,107.552158)" stroke-width="5" stroke-linecap="round" stroke-linejoin="round" fill="none" stroke="#aaaaaa" d="M144.445 800.605H1138.98"/>
<path transform="matrix(.097763,0,0,-.097763,173.49703,107.552158)" stroke-width="5" stroke-linecap="round" stroke-linejoin="round" fill="none" stroke="#aaaaaa" d="M144.445 900.059H1138.98"/>
<path transform="matrix(.097763,0,0,-.097763,173.49703,107.552158)" stroke-width="5" stroke-linecap="round" stroke-linejoin="round" fill="none" stroke="#aaaaaa" d="M144.445 999.512H1138.98"/>
<path transform="matrix(.097763,0,0,-.097763,173.49703,107.552158)" stroke-width="5" stroke-linecap="round" stroke-linejoin="round" fill="none" stroke="#000000" d="M1098.98 502.242H144.445"/>
<path transform="matrix(.097763,0,0,-.097763,173.49703,107.552158)" d="M1138.98 502.242C1114.97 504.344 1091.39 509.926 1068.98 518.813L1098.98 502.242 1068.98 485.676C1091.39 494.563 1114.97 500.141 1138.98 502.242"/>
<path transform="matrix(.097763,0,0,-.097763,173.49703,107.552158)" stroke-width="5" stroke-linecap="round" stroke-linejoin="round" fill="none" stroke="#000000" d="M1138.98 502.242C1114.97 504.344 1091.39 509.926 1068.98 518.813L1098.98 502.242 1068.98 485.676C1091.39 494.563 1114.97 500.141 1138.98 502.242Z"/>
<path transform="matrix(.097763,0,0,-.097763,173.49703,107.552158)" stroke-width="10" stroke-linecap="round" stroke-linejoin="round" fill="none" stroke="#000000" d="M144.445 502.242H1138.98"/>
<path transform="matrix(.097763,0,0,-.097763,173.49703,107.552158)" stroke-width="5" stroke-linecap="round" stroke-linejoin="round" fill="none" stroke="#000000" d="M641.715 959.512V4.97266"/>
<path transform="matrix(.097763,0,0,-.097763,173.49703,107.552158)" d="M641.715 999.512C639.613 975.5 634.035 951.918 625.148 929.512L641.715 959.512 658.285 929.512C649.398 951.918 643.816 975.5 641.715 999.512"/>
<path transform="matrix(.097763,0,0,-.097763,173.49703,107.552158)" stroke-width="5" stroke-linecap="round" stroke-linejoin="round" fill="none" stroke="#000000" d="M641.715 999.512C639.613 975.5 634.035 951.918 625.148 929.512L641.715 959.512 658.285 929.512C649.398 951.918 643.816 975.5 641.715 999.512Z"/>
<path transform="matrix(.097763,0,0,-.097763,173.49703,107.552158)" stroke-width="10" stroke-linecap="round" stroke-linejoin="round" fill="none" stroke="#000000" d="M641.715 4.97266V999.512"/>
<path transform="matrix(.097763,0,0,-.097763,173.49703,107.552158)" stroke-width="5" stroke-linecap="round" stroke-linejoin="round" fill="none" stroke="#000000" d="M144.445 900.059 154.391 842.375 164.336 788.672 174.281 738.941 184.227 693.195 194.172 651.422 204.117 613.633 214.063 579.816 224.008 549.98 233.953 524.121 243.898 502.242 253.844 484.34 263.789 470.418 273.734 460.473 283.684 454.504 293.629 452.516 303.574 454.504 313.52 460.473 323.465 470.418 333.41 484.34 343.355 502.242 353.301 524.121 363.246 549.98 373.191 579.816 383.137 613.633 393.082 651.422 403.027 693.195 412.973 738.941 422.918 788.672 432.863 842.375 442.809 900.059 452.754 961.719 462.699 1027.36 472.645 1096.98 482.59 1170.57 492.535 1248.15 502.48 1329.7 512.426 1415.23 522.371 1504.74 532.316 1598.23 542.262 1695.69 552.207 1797.13 562.152 1902.55 572.098 2011.95 582.043 2125.33 591.988 2242.69 601.934 2364.02 611.879 2489.33 621.824 2618.63 631.77 2751.89 641.715 2889.14 651.66 3030.36 661.605 3175.57 671.551 3324.75 681.496 3477.91 691.441 3635.04 701.387 3796.16 711.332 3961.25 721.277 4130.32 731.227 4303.38 741.172 4480.4 751.117 4661.41 761.063 4846.39 771.008 5035.36 780.953 5228.3 790.898 5425.21 800.844 5626.11 810.789 5830.99 820.734 6039.84 830.68 6252.67 840.625 6469.48 850.57 6690.27 860.516 6915.04 870.461 7143.78 880.406 7376.5 890.352 7613.2 900.297 7853.88 910.242 8098.54 920.188 8347.18 930.133 8599.79 940.078 8856.38 950.023 9116.95 959.969 9381.5 969.914 9650.02 979.859 9922.53 989.805 10199 999.75 10479.5 1009.7 10763.9 1019.64 11052.3 1029.59 11344.7 1039.53 11641.1 1049.48 11941.4 1059.42 12245.8 1069.37 12554.1 1079.31 12866.4 1089.26 13182.6 1099.2 13502.9 1109.15 13827.1 1119.09 14155.3 1129.04 14487.5 1138.98 14823.6"/>
</g>
<g clip-path="url(#clip_8)">
<text xml:space="preserve" transform="matrix(.97763 0 -0 .97763 173.49703 107.55118)" font-size="11.9552" font-family="CMR12"><tspan y="-88.44" x="1.497 7.355048">2)</tspan></text>
<text xml:space="preserve" transform="matrix(.97763 0 -0 .97763 173.49703 107.55118)" font-size="11.9552" font-family="CMR12"><tspan y="-40.856" x="55.082">0</tspan></text>
<text xml:space="preserve" transform="matrix(.97763 0 -0 .97763 173.49703 107.55118)" font-size="11.9552" font-family="CMMI12" font-style="italic"><tspan y="-41.478" x="107.112">x</tspan></text>
<text xml:space="preserve" transform="matrix(.97763 0 -0 .97763 173.49703 107.55118)" font-size="11.9552" font-family="CMMI12" font-style="italic"><tspan y="-94.139" x="54.439">y</tspan></text>
</g>
</g>
<g clip-path="url(#clip_9)">
<g clip-path="url(#clip_10)">
<path transform="matrix(.097763,0,0,-.097763,323.734,107.552158)" stroke-width="5" stroke-linecap="round" stroke-linejoin="round" fill="none" stroke="#aaaaaa" d="M144.445 4.97266V999.512"/>
<path transform="matrix(.097763,0,0,-.097763,323.734,107.552158)" stroke-width="5" stroke-linecap="round" stroke-linejoin="round" fill="none" stroke="#aaaaaa" d="M243.898 4.97266V999.512"/>
<path transform="matrix(.097763,0,0,-.097763,323.734,107.552158)" stroke-width="5" stroke-linecap="round" stroke-linejoin="round" fill="none" stroke="#aaaaaa" d="M343.355 4.97266V999.512"/>
<path transform="matrix(.097763,0,0,-.097763,323.734,107.552158)" stroke-width="5" stroke-linecap="round" stroke-linejoin="round" fill="none" stroke="#aaaaaa" d="M442.809 4.97266V999.512"/>
<path transform="matrix(.097763,0,0,-.097763,323.734,107.552158)" stroke-width="5" stroke-linecap="round" stroke-linejoin="round" fill="none" stroke="#aaaaaa" d="M542.262 4.97266V999.512"/>
<path transform="matrix(.097763,0,0,-.097763,323.734,107.552158)" stroke-width="5" stroke-linecap="round" stroke-linejoin="round" fill="none" stroke="#aaaaaa" d="M641.715 4.97266V999.512"/>
<path transform="matrix(.097763,0,0,-.097763,323.734,107.552158)" stroke-width="5" stroke-linecap="round" stroke-linejoin="round" fill="none" stroke="#aaaaaa" d="M741.172 4.97266V999.512"/>
<path transform="matrix(.097763,0,0,-.097763,323.734,107.552158)" stroke-width="5" stroke-linecap="round" stroke-linejoin="round" fill="none" stroke="#aaaaaa" d="M840.625 4.97266V999.512"/>
<path transform="matrix(.097763,0,0,-.097763,323.734,107.552158)" stroke-width="5" stroke-linecap="round" stroke-linejoin="round" fill="none" stroke="#aaaaaa" d="M940.078 4.97266V999.512"/>
<path transform="matrix(.097763,0,0,-.097763,323.734,107.552158)" stroke-width="5" stroke-linecap="round" stroke-linejoin="round" fill="none" stroke="#aaaaaa" d="M1039.53 4.97266V999.512"/>
<path transform="matrix(.097763,0,0,-.097763,323.734,107.552158)" stroke-width="5" stroke-linecap="round" stroke-linejoin="round" fill="none" stroke="#aaaaaa" d="M1138.98 4.97266V999.512"/>
<path transform="matrix(.097763,0,0,-.097763,323.734,107.552158)" stroke-width="5" stroke-linecap="round" stroke-linejoin="round" fill="none" stroke="#aaaaaa" d="M144.445 4.97266H1138.98"/>
<path transform="matrix(.097763,0,0,-.097763,323.734,107.552158)" stroke-width="5" stroke-linecap="round" stroke-linejoin="round" fill="none" stroke="#aaaaaa" d="M144.445 104.426H1138.98"/>
<path transform="matrix(.097763,0,0,-.097763,323.734,107.552158)" stroke-width="5" stroke-linecap="round" stroke-linejoin="round" fill="none" stroke="#aaaaaa" d="M144.445 203.879H1138.98"/>
<path transform="matrix(.097763,0,0,-.097763,323.734,107.552158)" stroke-width="5" stroke-linecap="round" stroke-linejoin="round" fill="none" stroke="#aaaaaa" d="M144.445 303.336H1138.98"/>
<path transform="matrix(.097763,0,0,-.097763,323.734,107.552158)" stroke-width="5" stroke-linecap="round" stroke-linejoin="round" fill="none" stroke="#aaaaaa" d="M144.445 402.789H1138.98"/>
<path transform="matrix(.097763,0,0,-.097763,323.734,107.552158)" stroke-width="5" stroke-linecap="round" stroke-linejoin="round" fill="none" stroke="#aaaaaa" d="M144.445 502.242H1138.98"/>
<path transform="matrix(.097763,0,0,-.097763,323.734,107.552158)" stroke-width="5" stroke-linecap="round" stroke-linejoin="round" fill="none" stroke="#aaaaaa" d="M144.445 601.695H1138.98"/>
<path transform="matrix(.097763,0,0,-.097763,323.734,107.552158)" stroke-width="5" stroke-linecap="round" stroke-linejoin="round" fill="none" stroke="#aaaaaa" d="M144.445 701.152H1138.98"/>
<path transform="matrix(.097763,0,0,-.097763,323.734,107.552158)" stroke-width="5" stroke-linecap="round" stroke-linejoin="round" fill="none" stroke="#aaaaaa" d="M144.445 800.605H1138.98"/>
<path transform="matrix(.097763,0,0,-.097763,323.734,107.552158)" stroke-width="5" stroke-linecap="round" stroke-linejoin="round" fill="none" stroke="#aaaaaa" d="M144.445 900.059H1138.98"/>
<path transform="matrix(.097763,0,0,-.097763,323.734,107.552158)" stroke-width="5" stroke-linecap="round" stroke-linejoin="round" fill="none" stroke="#aaaaaa" d="M144.445 999.512H1138.98"/>
<path transform="matrix(.097763,0,0,-.097763,323.734,107.552158)" stroke-width="5" stroke-linecap="round" stroke-linejoin="round" fill="none" stroke="#000000" d="M1098.98 502.242H144.445"/>
<path transform="matrix(.097763,0,0,-.097763,323.734,107.552158)" d="M1138.98 502.242C1114.97 504.344 1091.39 509.926 1068.98 518.813L1098.98 502.242 1068.98 485.676C1091.39 494.563 1114.97 500.141 1138.98 502.242"/>
<path transform="matrix(.097763,0,0,-.097763,323.734,107.552158)" stroke-width="5" stroke-linecap="round" stroke-linejoin="round" fill="none" stroke="#000000" d="M1138.98 502.242C1114.97 504.344 1091.39 509.926 1068.98 518.813L1098.98 502.242 1068.98 485.676C1091.39 494.563 1114.97 500.141 1138.98 502.242Z"/>
<path transform="matrix(.097763,0,0,-.097763,323.734,107.552158)" stroke-width="10" stroke-linecap="round" stroke-linejoin="round" fill="none" stroke="#000000" d="M144.445 502.242H1138.98"/>
<path transform="matrix(.097763,0,0,-.097763,323.734,107.552158)" stroke-width="5" stroke-linecap="round" stroke-linejoin="round" fill="none" stroke="#000000" d="M641.715 959.512V4.97266"/>
<path transform="matrix(.097763,0,0,-.097763,323.734,107.552158)" d="M641.715 999.512C639.613 975.5 634.035 951.918 625.148 929.512L641.715 959.512 658.285 929.512C649.398 951.918 643.816 975.5 641.715 999.512"/>
<path transform="matrix(.097763,0,0,-.097763,323.734,107.552158)" stroke-width="5" stroke-linecap="round" stroke-linejoin="round" fill="none" stroke="#000000" d="M641.715 999.512C639.613 975.5 634.035 951.918 625.148 929.512L641.715 959.512 658.285 929.512C649.398 951.918 643.816 975.5 641.715 999.512Z"/>
<path transform="matrix(.097763,0,0,-.097763,323.734,107.552158)" stroke-width="10" stroke-linecap="round" stroke-linejoin="round" fill="none" stroke="#000000" d="M641.715 4.97266V999.512"/>
<path transform="matrix(.097763,0,0,-.097763,323.734,107.552158)" stroke-width="5" stroke-linecap="round" stroke-linejoin="round" fill="none" stroke="#000000" d="M144.445 104.426 154.391 114.371 164.336 124.316 174.281 134.262 184.227 144.207 194.172 154.152 204.117 164.098 214.063 174.043 224.008 183.988 233.953 193.934 243.898 203.879 253.844 213.824 263.789 223.773 273.734 233.719 283.684 243.664 293.629 253.609 303.574 263.555 313.52 273.5 323.465 283.445 333.41 293.391 343.355 303.336 353.301 313.281 363.246 323.227 373.191 333.172 383.137 343.117 393.082 353.063 403.027 363.008 412.973 372.953 422.918 382.898 432.863 392.844 442.809 402.789 452.754 412.734 462.699 422.68 472.645 432.625 482.59 442.57 492.535 452.516 502.48 462.461 512.426 472.406 522.371 482.352 532.316 492.297 542.262 502.242 552.207 512.188 562.152 522.133 572.098 532.078 582.043 542.023 591.988 551.969 601.934 561.914 611.879 571.859 621.824 581.805 631.77 591.75 641.715 601.695 651.66 611.641 661.605 621.586 671.551 631.531 681.496 641.477 691.441 651.422 701.387 661.367 711.332 671.316 721.277 681.262 731.227 691.207 741.172 701.152 751.117 711.098 761.063 721.043 771.008 730.988 780.953 740.934 790.898 750.879 800.844 760.824 810.789 770.77 820.734 780.715 830.68 790.66 840.625 800.605 850.57 810.551 860.516 820.496 870.461 830.441 880.406 840.387 890.352 850.332 900.297 860.277 910.242 870.223 920.188 880.168 930.133 890.113 940.078 900.059 950.023 910.004 959.969 919.949 969.914 929.895 979.859 939.84 989.805 949.785 999.75 959.73 1009.7 969.676 1019.64 979.621 1029.59 989.566 1039.53 999.512 1049.48 1009.46 1059.42 1019.4 1069.37 1029.35 1079.31 1039.29 1089.26 1049.24 1099.2 1059.18 1109.15 1069.13 1119.09 1079.07 1129.04 1089.02 1138.98 1098.96"/>
</g>
<g clip-path="url(#clip_11)">
<text xml:space="preserve" transform="matrix(.97763 0 -0 .97763 323.734 107.55118)" font-size="11.9552" font-family="CMR12"><tspan y="-88.44" x="1.497 7.355048">3)</tspan></text>
<text xml:space="preserve" transform="matrix(.97763 0 -0 .97763 323.734 107.55118)" font-size="11.9552" font-family="CMR12"><tspan y="-40.856" x="67.411">0</tspan></text>
<text xml:space="preserve" transform="matrix(.97763 0 -0 .97763 323.734 107.55118)" font-size="11.9552" font-family="CMMI12" font-style="italic"><tspan y="-41.478" x="107.112">x</tspan></text>
<text xml:space="preserve" transform="matrix(.97763 0 -0 .97763 323.734 107.55118)" font-size="11.9552" font-family="CMMI12" font-style="italic"><tspan y="-94.139" x="54.439">y</tspan></text>
</g>
</g>
<text xml:space="preserve" transform="matrix(1 0 -0 1 -55 614.22219)" font-size="11.9552" font-family="F42"><tspan y="-478.094" x="72.283 84.46534 89.98864 95.83473 101.680828 108.1725 114.66418 121.15585 130.25377 136.74544 142.26876 152.66977 158.82669 164.67279 174.41628 180.90795 186.75405 197.15506 203.00116 209.17005 215.66172 221.50782 227.35391 237.74298 243.91187 250.08075 255.92685 265.67036 272.16203 278.00813 287.10603 292.30653 298.15263 303.99873 309.84483 315.69093 320.89143 326.73753 331.93803 337.78413 343.63023 349.7991 358.57423 367.9949 374.48658 384.8876 391.37928 397.22538 405.02018 410.22068 416.71235">&#x0412;&#x0442;&#x0430;&#x0431;&#x043b;&#x0438;&#x0446;&#x0435;&#x043f;&#x043e;&#x0434;&#x043a;&#x0430;&#x0436;&#x0434;&#x043e;&#x0439;&#x0431;&#x0443;&#x043a;&#x0432;&#x043e;&#x0439;&#x0443;&#x043a;&#x0430;&#x0436;&#x0438;&#x0442;&#x0435;&#x0441;&#x043e;&#x043e;&#x0442;&#x0432;&#x0435;&#x0442;&#x0441;&#x0442;&#x0432;&#x0443;&#x044e;&#x0449;&#x0438;&#x0439;&#x043d;&#x043e;&#x043c;&#x0435;&#x0440;.</tspan></text>
<path transform="matrix(1,0,0,-1,405.184,115.40616)" stroke-width=".398" stroke-linecap="butt" stroke-miterlimit="10" stroke-linejoin="miter" fill="none" stroke="#000000" d="M0 0H62.808"/>
<path transform="matrix(1,0,0,-1,405.383,132.94016)" stroke-width=".398" stroke-linecap="butt" stroke-miterlimit="10" stroke-linejoin="miter" fill="none" stroke="#000000" d="M0 0V17.335"/>
<text xml:space="preserve" transform="matrix(1 0 -0 1 -55 614.22219)" font-size="11.9552" font-family="F42"><tspan y="-486.483" x="466.56">&#x0410;</tspan></text>
<path transform="matrix(1,0,0,-1,426.51,132.94016)" stroke-width=".398" stroke-linecap="butt" stroke-miterlimit="10" stroke-linejoin="miter" fill="none" stroke="#000000" d="M0 0V17.335"/>
<text xml:space="preserve" transform="matrix(1 0 -0 1 -55 614.22219)" font-size="11.9552" font-family="F42"><tspan y="-486.483" x="487.687">&#x0411;</tspan></text>
<path transform="matrix(1,0,0,-1,447.152,132.94016)" stroke-width=".398" stroke-linecap="butt" stroke-miterlimit="10" stroke-linejoin="miter" fill="none" stroke="#000000" d="M0 0V17.335"/>
<text xml:space="preserve" transform="matrix(1 0 -0 1 -55 614.22219)" font-size="11.9552" font-family="F42"><tspan y="-486.483" x="508.328">&#x0412;</tspan></text>
<path transform="matrix(1,0,0,-1,467.79304,132.94016)" stroke-width=".398" stroke-linecap="butt" stroke-miterlimit="10" stroke-linejoin="miter" fill="none" stroke="#000000" d="M0 0V17.335"/>
<path transform="matrix(1,0,0,-1,405.184,133.13916)" stroke-width=".398" stroke-linecap="butt" stroke-miterlimit="10" stroke-linejoin="miter" fill="none" stroke="#000000" d="M0 0H62.808"/>
<path transform="matrix(1,0,0,-1,405.383,150.67316)" stroke-width=".398" stroke-linecap="butt" stroke-miterlimit="10" stroke-linejoin="miter" fill="none" stroke="#000000" d="M0 0V17.335"/>
<path transform="matrix(1,0,0,-1,426.51,150.67316)" stroke-width=".398" stroke-linecap="butt" stroke-miterlimit="10" stroke-linejoin="miter" fill="none" stroke="#000000" d="M0 0V17.335"/>
<path transform="matrix(1,0,0,-1,447.152,150.67316)" stroke-width=".398" stroke-linecap="butt" stroke-miterlimit="10" stroke-linejoin="miter" fill="none" stroke="#000000" d="M0 0V17.335"/>
<path transform="matrix(1,0,0,-1,467.79304,150.67316)" stroke-width=".398" stroke-linecap="butt" stroke-miterlimit="10" stroke-linejoin="miter" fill="none" stroke="#000000" d="M0 0V17.335"/>
<path transform="matrix(1,0,0,-1,405.184,150.87216)" stroke-width=".398" stroke-linecap="butt" stroke-miterlimit="10" stroke-linejoin="miter" fill="none" stroke="#000000" d="M0 0H62.808"/>
<path transform="matrix(1,0,0,-1,1.6930313,481.55418)" d="M0 0V300.64244H481.89598V0Z" fill="#aecbe8"/>
<path transform="matrix(1,0,0,-1,1.6930313,481.55418)" d="M1.41731 1.41731V261.7378H480.47868V1.41731Z" fill="#ffffff"/>
<text fill="#ffffff" xml:space="preserve" transform="matrix(1 0 -0 1 -54.999967 614.22219)" font-size="14.3462" font-family="F89"><tspan y="-410.866" x="72.283 84.190349 92.94153 100.8176 109.56878 117.44484 129.51 137.38607 145.26213 149.63773 157.5138 161.88939 169.76546">&#x0410;&#x043d;&#x0430;&#x043b;&#x043e;&#x0433;11.9.5.</tspan></text>
<path transform="matrix(1,0,0,-1,307.75605,215.56818)" d="M2.5512-2.5512V27.84944H87.59163V-2.5512Z" fill="#0e4182" fill-opacity=".5"/>
<path transform="matrix(1,0,0,-1,307.75605,215.56818)" d="M0 0V30.40063H85.04045V0Z" fill="#0e4182"/>
<path transform="matrix(1,0,0,-1,307.75605,215.56818)" d="M1.41731 1.41731V28.9833H83.62312V1.41731Z" fill="#ffffff"/>
<text fill="#0e4182" xml:space="preserve" transform="matrix(1 0 -0 1 -54.99997 614.22219)" font-size="11.9552" font-family="F42"><tspan y="-410.9" x="379.27 388.3679 394.85957 400.70567 406.55177 412.39787 418.24397 424.73564">&#x041f;&#x0440;&#x043e;&#x0442;&#x043e;&#x0442;&#x0438;&#x043f;</tspan></text>
<path transform="matrix(1,0,0,-1,402.79505,214.40618)" d="M2.5512-2.5512V25.52536H67.74895V-2.5512Z" fill="#0e4182" fill-opacity=".5"/>
<path transform="matrix(1,0,0,-1,402.79505,214.40618)" d="M0 0V28.07655H65.19777V0Z" fill="#0e4182"/>
<path transform="matrix(1,0,0,-1,402.79505,214.40618)" d="M1.41731 1.41731V26.65923H63.78044V1.41731Z" fill="#ffffff"/>
<text fill="#0e4182" xml:space="preserve" transform="matrix(1 0 -0 1 -54.99994 614.22219)" font-size="11.9552" font-family="F42"><tspan y="-409.738" x="474.464 483.5619 489.408 495.2541 500.4546">&#x041e;&#x0442;&#x0432;&#x0435;&#x0442;</tspan></text>
<text xml:space="preserve" transform="matrix(1 0 -0 1 -54.999967 614.22219)" font-size="11.9552" font-family="F42"><tspan y="-377.665" x="72.283 80.065837 85.278308 90.78965 96.63574 103.12742 108.97351 114.8196 121.31128 127.15737 138.46698 143.6675 149.5136 155.3597 161.2058 167.0519 172.25241 178.09851 183.29903 189.14513 194.99123 201.4829 212.79251 220.5873 225.78781 235.5313 242.02297 254.289 263.3869 269.233 275.72468 283.51948 289.0428 295.53446 301.38056 309.17536 315.66703 325.00404 330.20454 336.0626 342.5423 348.3884 357.1635 366.59617 373.07588 380.88264 393.47145 402.56935 408.73823 415.2299 421.72157 428.21324 434.7049 441.19657 450.54554 463.13435 468.33485 474.8265 480.6726 489.7705 496.26219 502.43107 508.27717 516.07199">&#x0423;&#x0441;&#x0442;&#x0430;&#x043d;&#x043e;&#x0432;&#x0438;&#x0442;&#x0435;&#x0441;&#x043e;&#x043e;&#x0442;&#x0432;&#x0435;&#x0442;&#x0441;&#x0442;&#x0432;&#x0438;&#x0435;&#x043c;&#x0435;&#x0436;&#x0434;&#x0443;&#x0444;&#x043e;&#x0440;&#x043c;&#x0443;&#x043b;&#x0430;&#x043c;&#x0438;,&#x0437;&#x0430;&#x0434;&#x0430;&#x044e;&#x0449;&#x0438;&#x043c;&#x0438;&#x0444;&#x0443;&#x043d;&#x043a;&#x0446;&#x0438;&#x0438;,&#x0438;&#x0433;&#x0440;&#x0430;&#x0444;&#x0438;&#x043a;&#x0430;&#x043c;&#x0438;</tspan><tspan y="-363.219" x="72.283 77.48351 83.329608 89.82128 99.88756 108.985469 115.15435 121.64603 128.1377 134.62937 141.12104 147.6127">&#x044d;&#x0442;&#x0438;&#x0445;&#x0444;&#x0443;&#x043d;&#x043a;&#x0446;&#x0438;&#x0439;.</tspan></text>
<text xml:space="preserve" transform="matrix(1 0 -0 1 -54.999967 614.22219)" font-size="11.9552" font-family="F70"><tspan y="-345.666" x="72.283 83.485019 93.5752 102.7568 115.501049 124.90978 135.43036">&#x0424;&#x041e;&#x0420;&#x041c;&#x0423;&#x041b;&#x042b;</tspan></text>
<path transform="matrix(1,0,0,-1,17.283032,270.23017)" stroke-width=".478" stroke-linecap="butt" stroke-miterlimit="10" stroke-linejoin="miter" fill="none" stroke="#000000" d="M0 0H76.32"/>
<text xml:space="preserve" transform="matrix(1 0 -0 1 -54.999967 614.22219)" font-size="11.9552" font-family="F42"><tspan y="-316.524" x="93.909 102.67216">&#x0410;)</tspan></text>
<text xml:space="preserve" transform="matrix(1 0 -0 1 -54.999967 614.22219)" font-size="11.9552" font-family="CMMI12" font-style="italic"><tspan y="-316.524" x="111.112529">&#x1d466;</tspan></text>
<text xml:space="preserve" transform="matrix(1 0 -0 1 -54.999967 614.22219)" font-size="11.9552" font-family="CMR12"><tspan y="-316.524" x="120.56909 133.0025">=4</tspan></text>
<text xml:space="preserve" transform="matrix(1 0 -0 1 -54.999967 614.22219)" font-size="11.9552" font-family="CMMI12" font-style="italic"><tspan y="-316.524" x="138.86055">&#x1d465;</tspan></text>
<text xml:space="preserve" transform="matrix(1 0 -0 1 -54.999967 614.22219)" font-size="7.9701" font-family="CMR8"><tspan y="-320.862" x="145.523">2</tspan></text>
<text xml:space="preserve" transform="matrix(1 0 -0 1 -54.999967 614.22219)" font-size="11.9552" font-family="CMR12"><tspan y="-316.524" x="152.91199 164.6759">+4</tspan></text>
<text xml:space="preserve" transform="matrix(1 0 -0 1 -54.999967 614.22219)" font-size="11.9552" font-family="CMMI12" font-style="italic"><tspan y="-316.524" x="170.53395">&#x1d465;</tspan></text>
<text xml:space="preserve" transform="matrix(1 0 -0 1 -54.999967 614.22219)" font-size="11.9552" font-family="CMSY10" font-style="italic"><tspan y="-316.524" x="179.8351">&#x2212;</tspan></text>
<text xml:space="preserve" transform="matrix(1 0 -0 1 -54.999967 614.22219)" font-size="11.9552" font-family="CMR12"><tspan y="-316.524" x="191.80226">3</tspan></text>
<text xml:space="preserve" transform="matrix(1 0 -0 1 -54.999967 614.22219)" font-size="11.9552" font-family="F42"><tspan y="-316.524" x="197.66031 254.80615 263.0911">;&#x0411;)</tspan></text>
<text xml:space="preserve" transform="matrix(1 0 -0 1 -54.999967 614.22219)" font-size="11.9552" font-family="CMMI12" font-style="italic"><tspan y="-316.524" x="271.53147">&#x1d466;</tspan></text>
<text xml:space="preserve" transform="matrix(1 0 -0 1 -54.999967 614.22219)" font-size="11.9552" font-family="CMR12"><tspan y="-316.524" x="280.98805">=</tspan><tspan y="-324.611" x="294.619">1</tspan></text>
<path transform="matrix(1,0,0,-1,239.61902,294.71018)" stroke-width=".478" stroke-linecap="butt" stroke-miterlimit="10" stroke-linejoin="miter" fill="none" stroke="#000000" d="M0 0H5.853"/>
<text xml:space="preserve" transform="matrix(1 0 -0 1 -54.999967 614.22219)" font-size="11.9552" font-family="CMR12"><tspan y="-308.323" x="294.619">2</tspan></text>
<text xml:space="preserve" transform="matrix(1 0 -0 1 -54.999967 614.22219)" font-size="11.9552" font-family="CMSY10" font-style="italic"><tspan y="-316.524" x="304.32398">&#x00b7;</tspan></text>
<text xml:space="preserve" transform="matrix(1 0 -0 1 -54.999967 614.22219)" font-size="11.9552" font-family="CMMI12" font-style="italic"><tspan y="-316.524" x="310.30158">&#x1d465;</tspan></text>
<text xml:space="preserve" transform="matrix(1 0 -0 1 -54.999967 614.22219)" font-size="11.9552" font-family="CMR12"><tspan y="-316.524" x="319.60273 331.3786">+2</tspan></text>
<text xml:space="preserve" transform="matrix(1 0 -0 1 -54.999967 614.22219)" font-size="11.9552" font-family="F42"><tspan y="-316.524" x="337.23667 419.48847 427.7734">;&#x0412;)</tspan></text>
<text xml:space="preserve" transform="matrix(1 0 -0 1 -54.999967 614.22219)" font-size="11.9552" font-family="CMMI12" font-style="italic"><tspan y="-316.524" x="436.21379">&#x1d466;</tspan></text>
<text xml:space="preserve" transform="matrix(1 0 -0 1 -54.999967 614.22219)" font-size="11.9552" font-family="CMR12"><tspan y="-316.524" x="445.67036">=</tspan><tspan y="-324.611" x="462.63398">1</tspan></text>
<path transform="matrix(1,0,0,-1,404.30805,294.71018)" stroke-width=".478" stroke-linecap="butt" stroke-miterlimit="10" stroke-linejoin="miter" fill="none" stroke="#000000" d="M0 0H12.505"/>
<text xml:space="preserve" transform="matrix(1 0 -0 1 -54.999967 614.22219)" font-size="11.9552" font-family="CMR12"><tspan y="-308.323" x="459.308">2</tspan></text>
<text xml:space="preserve" transform="matrix(1 0 -0 1 -54.999967 614.22219)" font-size="11.9552" font-family="CMMI12" font-style="italic"><tspan y="-308.323" x="465.16609">&#x1d465;</tspan></text>
<text xml:space="preserve" transform="matrix(1 0 -0 1 -54.999967 614.22219)" font-size="11.9552" font-family="F42"><tspan y="-316.524" x="473.00804">.</tspan></text>
<text xml:space="preserve" transform="matrix(1 0 -0 1 -54.999967 614.22219)" font-size="11.9552" font-family="F70"><tspan y="-297.668" x="72.28302 80.35278 88.41059 98.18994 109.39197 119.912548 130.43312">&#x0413;&#x0420;&#x0410;&#x0424;&#x0418;&#x041a;&#x0418;</tspan></text>
<path transform="matrix(1,0,0,-1,17.283032,318.22819)" stroke-width=".478" stroke-linecap="butt" stroke-miterlimit="10" stroke-linejoin="miter" fill="none" stroke="#000000" d="M0 0H68.712"/>
<g clip-path="url(#clip_12)">
<g clip-path="url(#clip_13)">
<path transform="matrix(.097710009,0,0,-.097710009,23.261036,428.11219)" stroke-width="5" stroke-linecap="round" stroke-linejoin="round" fill="none" stroke="#aaaaaa" d="M144.445 4.97656V1000.13"/>
<path transform="matrix(.097710009,0,0,-.097710009,23.261036,428.11219)" stroke-width="5" stroke-linecap="round" stroke-linejoin="round" fill="none" stroke="#aaaaaa" d="M243.961 4.97656V1000.13"/>
<path transform="matrix(.097710009,0,0,-.097710009,23.261036,428.11219)" stroke-width="5" stroke-linecap="round" stroke-linejoin="round" fill="none" stroke="#aaaaaa" d="M343.477 4.97656V1000.13"/>
<path transform="matrix(.097710009,0,0,-.097710009,23.261036,428.11219)" stroke-width="5" stroke-linecap="round" stroke-linejoin="round" fill="none" stroke="#aaaaaa" d="M442.992 4.97656V1000.13"/>
<path transform="matrix(.097710009,0,0,-.097710009,23.261036,428.11219)" stroke-width="5" stroke-linecap="round" stroke-linejoin="round" fill="none" stroke="#aaaaaa" d="M542.504 4.97656V1000.13"/>
<path transform="matrix(.097710009,0,0,-.097710009,23.261036,428.11219)" stroke-width="5" stroke-linecap="round" stroke-linejoin="round" fill="none" stroke="#aaaaaa" d="M642.02 4.97656V1000.13"/>
<path transform="matrix(.097710009,0,0,-.097710009,23.261036,428.11219)" stroke-width="5" stroke-linecap="round" stroke-linejoin="round" fill="none" stroke="#aaaaaa" d="M741.535 4.97656V1000.13"/>
<path transform="matrix(.097710009,0,0,-.097710009,23.261036,428.11219)" stroke-width="5" stroke-linecap="round" stroke-linejoin="round" fill="none" stroke="#aaaaaa" d="M841.051 4.97656V1000.13"/>
<path transform="matrix(.097710009,0,0,-.097710009,23.261036,428.11219)" stroke-width="5" stroke-linecap="round" stroke-linejoin="round" fill="none" stroke="#aaaaaa" d="M940.566 4.97656V1000.13"/>
<path transform="matrix(.097710009,0,0,-.097710009,23.261036,428.11219)" stroke-width="5" stroke-linecap="round" stroke-linejoin="round" fill="none" stroke="#aaaaaa" d="M1040.08 4.97656V1000.13"/>
<path transform="matrix(.097710009,0,0,-.097710009,23.261036,428.11219)" stroke-width="5" stroke-linecap="round" stroke-linejoin="round" fill="none" stroke="#aaaaaa" d="M1139.59 4.97656V1000.13"/>
<path transform="matrix(.097710009,0,0,-.097710009,23.261036,428.11219)" stroke-width="5" stroke-linecap="round" stroke-linejoin="round" fill="none" stroke="#aaaaaa" d="M144.445 4.97656H1139.59"/>
<path transform="matrix(.097710009,0,0,-.097710009,23.261036,428.11219)" stroke-width="5" stroke-linecap="round" stroke-linejoin="round" fill="none" stroke="#aaaaaa" d="M144.445 104.492H1139.59"/>
<path transform="matrix(.097710009,0,0,-.097710009,23.261036,428.11219)" stroke-width="5" stroke-linecap="round" stroke-linejoin="round" fill="none" stroke="#aaaaaa" d="M144.445 204.004H1139.59"/>
<path transform="matrix(.097710009,0,0,-.097710009,23.261036,428.11219)" stroke-width="5" stroke-linecap="round" stroke-linejoin="round" fill="none" stroke="#aaaaaa" d="M144.445 303.52H1139.59"/>
<path transform="matrix(.097710009,0,0,-.097710009,23.261036,428.11219)" stroke-width="5" stroke-linecap="round" stroke-linejoin="round" fill="none" stroke="#aaaaaa" d="M144.445 403.035H1139.59"/>
<path transform="matrix(.097710009,0,0,-.097710009,23.261036,428.11219)" stroke-width="5" stroke-linecap="round" stroke-linejoin="round" fill="none" stroke="#aaaaaa" d="M144.445 502.551H1139.59"/>
<path transform="matrix(.097710009,0,0,-.097710009,23.261036,428.11219)" stroke-width="5" stroke-linecap="round" stroke-linejoin="round" fill="none" stroke="#aaaaaa" d="M144.445 602.066H1139.59"/>
<path transform="matrix(.097710009,0,0,-.097710009,23.261036,428.11219)" stroke-width="5" stroke-linecap="round" stroke-linejoin="round" fill="none" stroke="#aaaaaa" d="M144.445 701.578H1139.59"/>
<path transform="matrix(.097710009,0,0,-.097710009,23.261036,428.11219)" stroke-width="5" stroke-linecap="round" stroke-linejoin="round" fill="none" stroke="#aaaaaa" d="M144.445 801.094H1139.59"/>
<path transform="matrix(.097710009,0,0,-.097710009,23.261036,428.11219)" stroke-width="5" stroke-linecap="round" stroke-linejoin="round" fill="none" stroke="#aaaaaa" d="M144.445 900.609H1139.59"/>
<path transform="matrix(.097710009,0,0,-.097710009,23.261036,428.11219)" stroke-width="5" stroke-linecap="round" stroke-linejoin="round" fill="none" stroke="#aaaaaa" d="M144.445 1000.13H1139.59"/>
<path transform="matrix(.097710009,0,0,-.097710009,23.261036,428.11219)" stroke-width="5" stroke-linecap="round" stroke-linejoin="round" fill="none" stroke="#000000" d="M1099.59 502.551H144.445"/>
<path transform="matrix(.097710009,0,0,-.097710009,23.261036,428.11219)" d="M1139.59 502.551C1115.58 504.652 1092 510.23 1069.59 519.117L1099.59 502.551 1069.59 485.98C1092 494.867 1115.58 500.449 1139.59 502.551"/>
<path transform="matrix(.097710009,0,0,-.097710009,23.261036,428.11219)" stroke-width="5" stroke-linecap="round" stroke-linejoin="round" fill="none" stroke="#000000" d="M1139.59 502.551C1115.58 504.652 1092 510.23 1069.59 519.117L1099.59 502.551 1069.59 485.98C1092 494.867 1115.58 500.449 1139.59 502.551Z"/>
<path transform="matrix(.097710009,0,0,-.097710009,23.261036,428.11219)" stroke-width="10" stroke-linecap="round" stroke-linejoin="round" fill="none" stroke="#000000" d="M144.445 502.551H1139.59"/>
<path transform="matrix(.097710009,0,0,-.097710009,23.261036,428.11219)" stroke-width="5" stroke-linecap="round" stroke-linejoin="round" fill="none" stroke="#000000" d="M642.02 960.125V4.97656"/>
<path transform="matrix(.097710009,0,0,-.097710009,23.261036,428.11219)" d="M642.02 1000.13C639.918 976.109 634.34 952.531 625.453 930.125L642.02 960.125 658.59 930.125C649.703 952.531 644.121 976.109 642.02 1000.13"/>
<path transform="matrix(.097710009,0,0,-.097710009,23.261036,428.11219)" stroke-width="5" stroke-linecap="round" stroke-linejoin="round" fill="none" stroke="#000000" d="M642.02 1000.13C639.918 976.109 634.34 952.531 625.453 930.125L642.02 960.125 658.59 930.125C649.703 952.531 644.121 976.109 642.02 1000.13Z"/>
<path transform="matrix(.097710009,0,0,-.097710009,23.261036,428.11219)" stroke-width="10" stroke-linecap="round" stroke-linejoin="round" fill="none" stroke="#000000" d="M642.02 4.97656V1000.13"/>
<path transform="matrix(.097710009,0,0,-.097710009,23.261036,428.11219)" stroke-width="5" stroke-linecap="round" stroke-linejoin="round" fill="none" stroke="#000000" d="M144.445 452.793 154.398 457.77 164.348 462.742 174.301 467.719 184.254 472.695 194.203 477.672 204.156 482.648 214.105 487.621 224.059 492.598 234.008 497.574 243.961 502.551 253.914 507.527 263.863 512.5 273.816 517.477 283.766 522.453 293.719 527.43 303.668 532.406 313.621 537.379 323.574 542.355 333.523 547.332 343.477 552.309 353.426 557.281 363.379 562.258 373.332 567.234 383.281 572.211 393.234 577.188 403.184 582.16 413.137 587.137 423.086 592.113 433.039 597.09 442.992 602.066 452.941 607.039 462.895 612.016 472.844 616.992 482.797 621.969 492.75 626.945 502.699 631.918 512.652 636.895 522.602 641.871 532.555 646.848 542.504 651.82 552.457 656.797 562.41 661.773 572.359 666.75 582.313 671.727 592.262 676.699 602.215 681.676 612.164 686.652 622.117 691.629 632.07 696.605 642.02 701.578 651.973 706.555 661.922 711.531 671.875 716.508 681.828 721.484 691.777 726.457 701.73 731.434 711.68 736.41 721.633 741.387 731.582 746.359 741.535 751.336 751.488 756.313 761.438 761.289 771.391 766.266 781.34 771.238 791.293 776.215 801.242 781.191 811.195 786.168 821.148 791.145 831.098 796.117 841.051 801.094 851 806.07 860.953 811.047 870.906 816.023 880.855 820.996 890.809 825.973 900.758 830.949 910.711 835.926 920.66 840.898 930.613 845.875 940.566 850.852 950.516 855.828 960.469 860.805 970.418 865.777 980.371 870.754 990.32 875.73 1000.27 880.707 1010.23 885.684 1020.18 890.656 1030.13 895.633 1040.08 900.609 1050.03 905.586 1059.98 910.563 1069.93 915.535 1079.89 920.512 1089.84 925.488 1099.79 930.465 1109.74 935.438 1119.69 940.414 1129.64 945.391 1139.59 950.367"/>
</g>
<g clip-path="url(#clip_14)">
<text xml:space="preserve" transform="matrix(.9771 0 -0 .9771 23.261036 428.11219)" font-size="11.9552" font-family="CMR12"><tspan y="-88.502" x="1.496 7.3540489">1)</tspan></text>
<text xml:space="preserve" transform="matrix(.9771 0 -0 .9771 23.261036 428.11219)" font-size="11.9552" font-family="CMR12"><tspan y="-40.888" x="67.44">0</tspan></text>
<text xml:space="preserve" transform="matrix(.9771 0 -0 .9771 23.261036 428.11219)" font-size="11.9552" font-family="CMMI12" font-style="italic"><tspan y="-41.51" x="107.172">x</tspan></text>
<text xml:space="preserve" transform="matrix(.9771 0 -0 .9771 23.261036 428.11219)" font-size="11.9552" font-family="CMMI12" font-style="italic"><tspan y="-94.201" x="54.468">y</tspan></text>
</g>
</g>
<g clip-path="url(#clip_15)">
<g clip-path="url(#clip_16)">
<path transform="matrix(.097815,0,0,-.097815,173.49703,428.1151)" stroke-width="5" stroke-linecap="round" stroke-linejoin="round" fill="none" stroke="#aaaaaa" d="M144.445 4.96875V998.902"/>
<path transform="matrix(.097815,0,0,-.097815,173.49703,428.1151)" stroke-width="5" stroke-linecap="round" stroke-linejoin="round" fill="none" stroke="#aaaaaa" d="M243.84 4.96875V998.902"/>
<path transform="matrix(.097815,0,0,-.097815,173.49703,428.1151)" stroke-width="5" stroke-linecap="round" stroke-linejoin="round" fill="none" stroke="#aaaaaa" d="M343.234 4.96875V998.902"/>
<path transform="matrix(.097815,0,0,-.097815,173.49703,428.1151)" stroke-width="5" stroke-linecap="round" stroke-linejoin="round" fill="none" stroke="#aaaaaa" d="M442.625 4.96875V998.902"/>
<path transform="matrix(.097815,0,0,-.097815,173.49703,428.1151)" stroke-width="5" stroke-linecap="round" stroke-linejoin="round" fill="none" stroke="#aaaaaa" d="M542.02 4.96875V998.902"/>
<path transform="matrix(.097815,0,0,-.097815,173.49703,428.1151)" stroke-width="5" stroke-linecap="round" stroke-linejoin="round" fill="none" stroke="#aaaaaa" d="M641.414 4.96875V998.902"/>
<path transform="matrix(.097815,0,0,-.097815,173.49703,428.1151)" stroke-width="5" stroke-linecap="round" stroke-linejoin="round" fill="none" stroke="#aaaaaa" d="M740.805 4.96875V998.902"/>
<path transform="matrix(.097815,0,0,-.097815,173.49703,428.1151)" stroke-width="5" stroke-linecap="round" stroke-linejoin="round" fill="none" stroke="#aaaaaa" d="M840.199 4.96875V998.902"/>
<path transform="matrix(.097815,0,0,-.097815,173.49703,428.1151)" stroke-width="5" stroke-linecap="round" stroke-linejoin="round" fill="none" stroke="#aaaaaa" d="M939.594 4.96875V998.902"/>
<path transform="matrix(.097815,0,0,-.097815,173.49703,428.1151)" stroke-width="5" stroke-linecap="round" stroke-linejoin="round" fill="none" stroke="#aaaaaa" d="M1038.98 4.96875V998.902"/>
<path transform="matrix(.097815,0,0,-.097815,173.49703,428.1151)" stroke-width="5" stroke-linecap="round" stroke-linejoin="round" fill="none" stroke="#aaaaaa" d="M1138.38 4.96875V998.902"/>
<path transform="matrix(.097815,0,0,-.097815,173.49703,428.1151)" stroke-width="5" stroke-linecap="round" stroke-linejoin="round" fill="none" stroke="#aaaaaa" d="M144.445 4.96875H1138.38"/>
<path transform="matrix(.097815,0,0,-.097815,173.49703,428.1151)" stroke-width="5" stroke-linecap="round" stroke-linejoin="round" fill="none" stroke="#aaaaaa" d="M144.445 104.363H1138.38"/>
<path transform="matrix(.097815,0,0,-.097815,173.49703,428.1151)" stroke-width="5" stroke-linecap="round" stroke-linejoin="round" fill="none" stroke="#aaaaaa" d="M144.445 203.758H1138.38"/>
<path transform="matrix(.097815,0,0,-.097815,173.49703,428.1151)" stroke-width="5" stroke-linecap="round" stroke-linejoin="round" fill="none" stroke="#aaaaaa" d="M144.445 303.148H1138.38"/>
<path transform="matrix(.097815,0,0,-.097815,173.49703,428.1151)" stroke-width="5" stroke-linecap="round" stroke-linejoin="round" fill="none" stroke="#aaaaaa" d="M144.445 402.543H1138.38"/>
<path transform="matrix(.097815,0,0,-.097815,173.49703,428.1151)" stroke-width="5" stroke-linecap="round" stroke-linejoin="round" fill="none" stroke="#aaaaaa" d="M144.445 501.938H1138.38"/>
<path transform="matrix(.097815,0,0,-.097815,173.49703,428.1151)" stroke-width="5" stroke-linecap="round" stroke-linejoin="round" fill="none" stroke="#aaaaaa" d="M144.445 601.328H1138.38"/>
<path transform="matrix(.097815,0,0,-.097815,173.49703,428.1151)" stroke-width="5" stroke-linecap="round" stroke-linejoin="round" fill="none" stroke="#aaaaaa" d="M144.445 700.723H1138.38"/>
<path transform="matrix(.097815,0,0,-.097815,173.49703,428.1151)" stroke-width="5" stroke-linecap="round" stroke-linejoin="round" fill="none" stroke="#aaaaaa" d="M144.445 800.117H1138.38"/>
<path transform="matrix(.097815,0,0,-.097815,173.49703,428.1151)" stroke-width="5" stroke-linecap="round" stroke-linejoin="round" fill="none" stroke="#aaaaaa" d="M144.445 899.508H1138.38"/>
<path transform="matrix(.097815,0,0,-.097815,173.49703,428.1151)" stroke-width="5" stroke-linecap="round" stroke-linejoin="round" fill="none" stroke="#aaaaaa" d="M144.445 998.902H1138.38"/>
<path transform="matrix(.097815,0,0,-.097815,173.49703,428.1151)" stroke-width="5" stroke-linecap="round" stroke-linejoin="round" fill="none" stroke="#000000" d="M1098.38 501.938H144.445"/>
<path transform="matrix(.097815,0,0,-.097815,173.49703,428.1151)" d="M1138.38 501.938C1114.37 504.035 1090.79 509.617 1068.38 518.504L1098.38 501.938 1068.38 485.367C1090.79 494.254 1114.37 499.836 1138.38 501.938"/>
<path transform="matrix(.097815,0,0,-.097815,173.49703,428.1151)" stroke-width="5" stroke-linecap="round" stroke-linejoin="round" fill="none" stroke="#000000" d="M1138.38 501.938C1114.37 504.035 1090.79 509.617 1068.38 518.504L1098.38 501.938 1068.38 485.367C1090.79 494.254 1114.37 499.836 1138.38 501.938Z"/>
<path transform="matrix(.097815,0,0,-.097815,173.49703,428.1151)" stroke-width="10" stroke-linecap="round" stroke-linejoin="round" fill="none" stroke="#000000" d="M144.445 501.938H1138.38"/>
<path transform="matrix(.097815,0,0,-.097815,173.49703,428.1151)" stroke-width="5" stroke-linecap="round" stroke-linejoin="round" fill="none" stroke="#000000" d="M641.414 958.902V4.96875"/>
<path transform="matrix(.097815,0,0,-.097815,173.49703,428.1151)" d="M641.414 998.902C639.313 974.891 633.73 951.309 624.844 928.902L641.414 958.902 657.98 928.902C649.094 951.309 643.512 974.891 641.414 998.902"/>
<path transform="matrix(.097815,0,0,-.097815,173.49703,428.1151)" stroke-width="5" stroke-linecap="round" stroke-linejoin="round" fill="none" stroke="#000000" d="M641.414 998.902C639.313 974.891 633.73 951.309 624.844 928.902L641.414 958.902 657.98 928.902C649.094 951.309 643.512 974.891 641.414 998.902Z"/>
<path transform="matrix(.097815,0,0,-.097815,173.49703,428.1151)" stroke-width="10" stroke-linecap="round" stroke-linejoin="round" fill="none" stroke="#000000" d="M641.414 4.96875V998.902"/>
<path transform="matrix(.097815,0,0,-.097815,173.49703,428.1151)" stroke-width="5" stroke-linecap="round" stroke-linejoin="round" fill="none" stroke="#000000" d="M144.445 491.996 149.406 491.895 154.367 491.793 159.324 491.691 164.285 491.582 169.246 491.473 174.203 491.363 179.164 491.25 184.125 491.133 189.082 491.016 194.043 490.895 199.004 490.77 203.961 490.645 208.922 490.516 213.883 490.383 218.844 490.246 223.801 490.109 228.762 489.965 233.723 489.82 238.68 489.672 243.641 489.52 248.602 489.359 253.559 489.199 258.52 489.035 263.48 488.867 268.438 488.691 273.398 488.516 278.359 488.332 283.32 488.141 288.277 487.949 293.238 487.75 298.199 487.543 303.156 487.332 308.117 487.117 313.078 486.891 318.035 486.66 322.996 486.422 327.957 486.176 332.914 485.926 337.875 485.664 342.836 485.391 347.793 485.113 352.754 484.824 357.715 484.523 362.676 484.215 367.633 483.895 372.594 483.563 377.555 483.215 382.512 482.855 387.473 482.484 392.434 482.098 397.391 481.695 402.352 481.273 407.313 480.836 412.27 480.379 417.23 479.902 422.191 479.402 427.148 478.883 432.109 478.336 437.07 477.762 442.031 477.16 446.988 476.531 451.949 475.863 456.91 475.164 461.867 474.426 466.828 473.645 471.789 472.816 476.746 471.938 481.707 471.008 486.668 470.016 491.625 468.957 496.586 467.828 501.547 466.621 506.508 465.32 511.465 463.926 516.426 462.414 521.387 460.781 526.344 459.008 531.305 457.074 536.266 454.961 541.223 452.633 546.184 450.066 551.145 447.215 556.102 444.035 561.063 440.461 566.023 436.418 570.98 431.801 575.941 426.488 580.902 420.305 585.863 413.016 590.82 404.301 595.781 393.688 600.742 380.488 605.699 363.621 610.66 341.313 615.621 310.426 620.578 264.832 625.539 190.75 630.5 49.3242 635.457-327.723 640.418-4467.73"/>
<path transform="matrix(.097815,0,0,-.097815,173.49703,428.1151)" stroke-width="5" stroke-linecap="round" stroke-linejoin="round" fill="none" stroke="#000000" d="M642.406 5471.6 647.367 1331.59 652.324 954.547 657.285 813.125 662.246 739.039 667.203 693.445 672.164 662.559 677.125 640.25 682.086 623.383 687.043 610.184 692.004 599.57 696.965 590.855 701.922 583.566 706.883 577.383 711.844 572.07 716.801 567.457 721.762 563.41 726.723 559.836 731.68 556.656 736.641 553.805 741.602 551.238 746.559 548.914 751.52 546.797 756.48 544.863 761.441 543.09 766.398 541.457 771.359 539.949 776.32 538.551 781.277 537.25 786.238 536.043 791.199 534.914 796.156 533.855 801.117 532.863 806.078 531.934 811.035 531.055 815.996 530.23 820.957 529.445 825.918 528.707 830.875 528.008 835.836 527.34 840.797 526.711 845.754 526.109 850.715 525.535 855.676 524.988 860.633 524.469 865.594 523.969 870.555 523.492 875.512 523.035 880.473 522.598 885.434 522.18 890.391 521.773 895.352 521.387 900.313 521.016 905.273 520.656 910.23 520.313 915.191 519.977 920.152 519.656 925.109 519.348 930.07 519.047 935.031 518.758 939.988 518.48 944.949 518.211 949.91 517.949 954.867 517.695 959.828 517.449 964.789 517.211 969.746 516.98 974.707 516.758 979.668 516.539 984.629 516.328 989.586 516.121 994.547 515.922 999.508 515.73 1004.46 515.543 1009.43 515.359 1014.39 515.18 1019.34 515.004 1024.3 514.836 1029.27 514.672 1034.22 514.512 1039.18 514.355 1044.14 514.199 1049.11 514.051 1054.06 513.906 1059.02 513.766 1063.98 513.625 1068.94 513.488 1073.9 513.355 1078.86 513.227 1083.82 513.102 1088.78 512.977 1093.74 512.855 1098.7 512.738 1103.66 512.621 1108.62 512.508 1113.58 512.398 1118.54 512.289 1123.5 512.184 1128.46 512.078 1133.42 511.977 1138.38 511.875"/>
</g>
<g clip-path="url(#clip_17)">
<text xml:space="preserve" transform="matrix(.97815 0 -0 .97815 173.49703 428.11219)" font-size="11.9552" font-family="CMR12"><tspan y="-88.377" x="1.498 7.3560488">2)</tspan></text>
<text xml:space="preserve" transform="matrix(.97815 0 -0 .97815 173.49703 428.11219)" font-size="11.9552" font-family="CMR12"><tspan y="-40.824" x="67.381">0</tspan></text>
<text xml:space="preserve" transform="matrix(.97815 0 -0 .97815 173.49703 428.11219)" font-size="11.9552" font-family="CMMI12" font-style="italic"><tspan y="-41.446" x="107.052">x</tspan></text>
<text xml:space="preserve" transform="matrix(.97815 0 -0 .97815 173.49703 428.11219)" font-size="11.9552" font-family="CMMI12" font-style="italic"><tspan y="-94.076" x="54.409">y</tspan></text>
</g>
</g>
<g clip-path="url(#clip_18)">
<g clip-path="url(#clip_19)">
<path transform="matrix(.097763,0,0,-.097763,323.734,428.11317)" stroke-width="5" stroke-linecap="round" stroke-linejoin="round" fill="none" stroke="#aaaaaa" d="M144.445 4.97266V999.512"/>
<path transform="matrix(.097763,0,0,-.097763,323.734,428.11317)" stroke-width="5" stroke-linecap="round" stroke-linejoin="round" fill="none" stroke="#aaaaaa" d="M243.898 4.97266V999.512"/>
<path transform="matrix(.097763,0,0,-.097763,323.734,428.11317)" stroke-width="5" stroke-linecap="round" stroke-linejoin="round" fill="none" stroke="#aaaaaa" d="M343.355 4.97266V999.512"/>
<path transform="matrix(.097763,0,0,-.097763,323.734,428.11317)" stroke-width="5" stroke-linecap="round" stroke-linejoin="round" fill="none" stroke="#aaaaaa" d="M442.809 4.97266V999.512"/>
<path transform="matrix(.097763,0,0,-.097763,323.734,428.11317)" stroke-width="5" stroke-linecap="round" stroke-linejoin="round" fill="none" stroke="#aaaaaa" d="M542.262 4.97266V999.512"/>
<path transform="matrix(.097763,0,0,-.097763,323.734,428.11317)" stroke-width="5" stroke-linecap="round" stroke-linejoin="round" fill="none" stroke="#aaaaaa" d="M641.715 4.97266V999.512"/>
<path transform="matrix(.097763,0,0,-.097763,323.734,428.11317)" stroke-width="5" stroke-linecap="round" stroke-linejoin="round" fill="none" stroke="#aaaaaa" d="M741.172 4.97266V999.512"/>
<path transform="matrix(.097763,0,0,-.097763,323.734,428.11317)" stroke-width="5" stroke-linecap="round" stroke-linejoin="round" fill="none" stroke="#aaaaaa" d="M840.625 4.97266V999.512"/>
<path transform="matrix(.097763,0,0,-.097763,323.734,428.11317)" stroke-width="5" stroke-linecap="round" stroke-linejoin="round" fill="none" stroke="#aaaaaa" d="M940.078 4.97266V999.512"/>
<path transform="matrix(.097763,0,0,-.097763,323.734,428.11317)" stroke-width="5" stroke-linecap="round" stroke-linejoin="round" fill="none" stroke="#aaaaaa" d="M1039.53 4.97266V999.512"/>
<path transform="matrix(.097763,0,0,-.097763,323.734,428.11317)" stroke-width="5" stroke-linecap="round" stroke-linejoin="round" fill="none" stroke="#aaaaaa" d="M1138.98 4.97266V999.512"/>
<path transform="matrix(.097763,0,0,-.097763,323.734,428.11317)" stroke-width="5" stroke-linecap="round" stroke-linejoin="round" fill="none" stroke="#aaaaaa" d="M144.445 4.97266H1138.98"/>
<path transform="matrix(.097763,0,0,-.097763,323.734,428.11317)" stroke-width="5" stroke-linecap="round" stroke-linejoin="round" fill="none" stroke="#aaaaaa" d="M144.445 104.426H1138.98"/>
<path transform="matrix(.097763,0,0,-.097763,323.734,428.11317)" stroke-width="5" stroke-linecap="round" stroke-linejoin="round" fill="none" stroke="#aaaaaa" d="M144.445 203.879H1138.98"/>
<path transform="matrix(.097763,0,0,-.097763,323.734,428.11317)" stroke-width="5" stroke-linecap="round" stroke-linejoin="round" fill="none" stroke="#aaaaaa" d="M144.445 303.336H1138.98"/>
<path transform="matrix(.097763,0,0,-.097763,323.734,428.11317)" stroke-width="5" stroke-linecap="round" stroke-linejoin="round" fill="none" stroke="#aaaaaa" d="M144.445 402.789H1138.98"/>
<path transform="matrix(.097763,0,0,-.097763,323.734,428.11317)" stroke-width="5" stroke-linecap="round" stroke-linejoin="round" fill="none" stroke="#aaaaaa" d="M144.445 502.242H1138.98"/>
<path transform="matrix(.097763,0,0,-.097763,323.734,428.11317)" stroke-width="5" stroke-linecap="round" stroke-linejoin="round" fill="none" stroke="#aaaaaa" d="M144.445 601.695H1138.98"/>
<path transform="matrix(.097763,0,0,-.097763,323.734,428.11317)" stroke-width="5" stroke-linecap="round" stroke-linejoin="round" fill="none" stroke="#aaaaaa" d="M144.445 701.152H1138.98"/>
<path transform="matrix(.097763,0,0,-.097763,323.734,428.11317)" stroke-width="5" stroke-linecap="round" stroke-linejoin="round" fill="none" stroke="#aaaaaa" d="M144.445 800.605H1138.98"/>
<path transform="matrix(.097763,0,0,-.097763,323.734,428.11317)" stroke-width="5" stroke-linecap="round" stroke-linejoin="round" fill="none" stroke="#aaaaaa" d="M144.445 900.059H1138.98"/>
<path transform="matrix(.097763,0,0,-.097763,323.734,428.11317)" stroke-width="5" stroke-linecap="round" stroke-linejoin="round" fill="none" stroke="#aaaaaa" d="M144.445 999.512H1138.98"/>
<path transform="matrix(.097763,0,0,-.097763,323.734,428.11317)" stroke-width="5" stroke-linecap="round" stroke-linejoin="round" fill="none" stroke="#000000" d="M1098.98 502.242H144.445"/>
<path transform="matrix(.097763,0,0,-.097763,323.734,428.11317)" d="M1138.98 502.242C1114.97 504.344 1091.39 509.926 1068.98 518.813L1098.98 502.242 1068.98 485.676C1091.39 494.563 1114.97 500.141 1138.98 502.242"/>
<path transform="matrix(.097763,0,0,-.097763,323.734,428.11317)" stroke-width="5" stroke-linecap="round" stroke-linejoin="round" fill="none" stroke="#000000" d="M1138.98 502.242C1114.97 504.344 1091.39 509.926 1068.98 518.813L1098.98 502.242 1068.98 485.676C1091.39 494.563 1114.97 500.141 1138.98 502.242Z"/>
<path transform="matrix(.097763,0,0,-.097763,323.734,428.11317)" stroke-width="10" stroke-linecap="round" stroke-linejoin="round" fill="none" stroke="#000000" d="M144.445 502.242H1138.98"/>
<path transform="matrix(.097763,0,0,-.097763,323.734,428.11317)" stroke-width="5" stroke-linecap="round" stroke-linejoin="round" fill="none" stroke="#000000" d="M641.715 959.512V4.97266"/>
<path transform="matrix(.097763,0,0,-.097763,323.734,428.11317)" d="M641.715 999.512C639.613 975.5 634.035 951.918 625.148 929.512L641.715 959.512 658.285 929.512C649.398 951.918 643.816 975.5 641.715 999.512"/>
<path transform="matrix(.097763,0,0,-.097763,323.734,428.11317)" stroke-width="5" stroke-linecap="round" stroke-linejoin="round" fill="none" stroke="#000000" d="M641.715 999.512C639.613 975.5 634.035 951.918 625.148 929.512L641.715 959.512 658.285 929.512C649.398 951.918 643.816 975.5 641.715 999.512Z"/>
<path transform="matrix(.097763,0,0,-.097763,323.734,428.11317)" stroke-width="10" stroke-linecap="round" stroke-linejoin="round" fill="none" stroke="#000000" d="M641.715 4.97266V999.512"/>
<path transform="matrix(.097763,0,0,-.097763,323.734,428.11317)" stroke-width="5" stroke-linecap="round" stroke-linejoin="round" fill="none" stroke="#000000" d="M144.445 8160.2 154.391 7806.14 164.336 7460.04 174.281 7121.9 184.227 6791.71 194.172 6469.48 204.117 6155.21 214.063 5848.89 224.008 5550.53 233.953 5260.12 243.898 4977.67 253.844 4703.18 263.789 4436.64 273.734 4178.06 283.684 3927.44 293.629 3684.77 303.574 3450.06 313.52 3223.3 323.465 3004.5 333.41 2793.66 343.355 2590.78 353.301 2395.85 363.246 2208.88 373.191 2029.86 383.137 1858.8 393.082 1695.69 403.027 1540.54 412.973 1393.35 422.918 1254.11 432.863 1122.84 442.809 999.512 452.754 884.145 462.699 776.734 472.645 677.281 482.59 585.785 492.535 502.242 502.48 426.656 512.426 359.027 522.371 299.355 532.316 247.641 542.262 203.879 552.207 168.078 562.152 140.23 572.098 120.34 582.043 108.406 591.988 104.426 601.934 108.406 611.879 120.34 621.824 140.23 631.77 168.078 641.715 203.879 651.66 247.641 661.605 299.355 671.551 359.027 681.496 426.656 691.441 502.242 701.387 585.785 711.332 677.281 721.277 776.734 731.227 884.145 741.172 999.512 751.117 1122.84 761.063 1254.11 771.008 1393.35 780.953 1540.54 790.898 1695.69 800.844 1858.8 810.789 2029.86 820.734 2208.88 830.68 2395.85 840.625 2590.78 850.57 2793.66 860.516 3004.5 870.461 3223.3 880.406 3450.06 890.352 3684.77 900.297 3927.44 910.242 4178.06 920.188 4436.64 930.133 4703.18 940.078 4977.67 950.023 5260.12 959.969 5550.53 969.914 5848.89 979.859 6155.21 989.805 6469.48 999.75 6791.71 1009.7 7121.9 1019.64 7460.04 1029.59 7806.14 1039.53 8160.2 1049.48 8522.21 1059.42 8892.18 1069.37 9270.11 1079.31 9655.99 1089.26 10049.8 1099.2 10451.6 1109.15 10861.4 1119.09 11279.1 1129.04 11704.7 1138.98 12138.4"/>
</g>
<g clip-path="url(#clip_20)">
<text xml:space="preserve" transform="matrix(.97763 0 -0 .97763 323.734 428.11219)" font-size="11.9552" font-family="CMR12"><tspan y="-88.44" x="1.497 7.355048">3)</tspan></text>
<text xml:space="preserve" transform="matrix(.97763 0 -0 .97763 323.734 428.11219)" font-size="11.9552" font-family="CMR12"><tspan y="-40.856" x="55.082">0</tspan></text>
<text xml:space="preserve" transform="matrix(.97763 0 -0 .97763 323.734 428.11219)" font-size="11.9552" font-family="CMMI12" font-style="italic"><tspan y="-41.478" x="107.112">x</tspan></text>
<text xml:space="preserve" transform="matrix(.97763 0 -0 .97763 323.734 428.11219)" font-size="11.9552" font-family="CMMI12" font-style="italic"><tspan y="-94.139" x="54.439">y</tspan></text>
</g>
</g>
<text xml:space="preserve" transform="matrix(1 0 -0 1 -55 614.22219)" font-size="11.9552" font-family="F42"><tspan y="-157.533" x="72.283 84.46534 89.98864 95.83473 101.680828 108.1725 114.66418 121.15585 130.25377 136.74544 142.26876 152.66977 158.82669 164.67279 174.41628 180.90795 186.75405 197.15506 203.00116 209.17005 215.66172 221.50782 227.35391 237.74298 243.91187 250.08075 255.92685 265.67036 272.16203 278.00813 287.10603 292.30653 298.15263 303.99873 309.84483 315.69093 320.89143 326.73753 331.93803 337.78413 343.63023 349.7991 358.57423 367.9949 374.48658 384.8876 391.37928 397.22538 405.02018 410.22068 416.71235">&#x0412;&#x0442;&#x0430;&#x0431;&#x043b;&#x0438;&#x0446;&#x0435;&#x043f;&#x043e;&#x0434;&#x043a;&#x0430;&#x0436;&#x0434;&#x043e;&#x0439;&#x0431;&#x0443;&#x043a;&#x0432;&#x043e;&#x0439;&#x0443;&#x043a;&#x0430;&#x0436;&#x0438;&#x0442;&#x0435;&#x0441;&#x043e;&#x043e;&#x0442;&#x0432;&#x0435;&#x0442;&#x0441;&#x0442;&#x0432;&#x0443;&#x044e;&#x0449;&#x0438;&#x0439;&#x043d;&#x043e;&#x043c;&#x0435;&#x0440;.</tspan></text>
<path transform="matrix(1,0,0,-1,405.184,435.96717)" stroke-width=".398" stroke-linecap="butt" stroke-miterlimit="10" stroke-linejoin="miter" fill="none" stroke="#000000" d="M0 0H62.808"/>
<path transform="matrix(1,0,0,-1,405.383,453.50117)" stroke-width=".398" stroke-linecap="butt" stroke-miterlimit="10" stroke-linejoin="miter" fill="none" stroke="#000000" d="M0 0V17.335"/>
<text xml:space="preserve" transform="matrix(1 0 -0 1 -55 614.22219)" font-size="11.9552" font-family="F42"><tspan y="-165.922" x="466.56">&#x0410;</tspan></text>
<path transform="matrix(1,0,0,-1,426.51,453.50117)" stroke-width=".398" stroke-linecap="butt" stroke-miterlimit="10" stroke-linejoin="miter" fill="none" stroke="#000000" d="M0 0V17.335"/>
<text xml:space="preserve" transform="matrix(1 0 -0 1 -55 614.22219)" font-size="11.9552" font-family="F42"><tspan y="-165.922" x="487.687">&#x0411;</tspan></text>
<path transform="matrix(1,0,0,-1,447.152,453.50117)" stroke-width=".398" stroke-linecap="butt" stroke-miterlimit="10" stroke-linejoin="miter" fill="none" stroke="#000000" d="M0 0V17.335"/>
<text xml:space="preserve" transform="matrix(1 0 -0 1 -55 614.22219)" font-size="11.9552" font-family="F42"><tspan y="-165.922" x="508.328">&#x0412;</tspan></text>
<path transform="matrix(1,0,0,-1,467.79304,453.50117)" stroke-width=".398" stroke-linecap="butt" stroke-miterlimit="10" stroke-linejoin="miter" fill="none" stroke="#000000" d="M0 0V17.335"/>
<path transform="matrix(1,0,0,-1,405.184,453.70018)" stroke-width=".398" stroke-linecap="butt" stroke-miterlimit="10" stroke-linejoin="miter" fill="none" stroke="#000000" d="M0 0H62.808"/>
<path transform="matrix(1,0,0,-1,405.383,471.23417)" stroke-width=".398" stroke-linecap="butt" stroke-miterlimit="10" stroke-linejoin="miter" fill="none" stroke="#000000" d="M0 0V17.335"/>
<path transform="matrix(1,0,0,-1,426.51,471.23417)" stroke-width=".398" stroke-linecap="butt" stroke-miterlimit="10" stroke-linejoin="miter" fill="none" stroke="#000000" d="M0 0V17.335"/>
<path transform="matrix(1,0,0,-1,447.152,471.23417)" stroke-width=".398" stroke-linecap="butt" stroke-miterlimit="10" stroke-linejoin="miter" fill="none" stroke="#000000" d="M0 0V17.335"/>
<path transform="matrix(1,0,0,-1,467.79304,471.23417)" stroke-width=".398" stroke-linecap="butt" stroke-miterlimit="10" stroke-linejoin="miter" fill="none" stroke="#000000" d="M0 0V17.335"/>
<path transform="matrix(1,0,0,-1,405.184,471.43318)" stroke-width=".398" stroke-linecap="butt" stroke-miterlimit="10" stroke-linejoin="miter" fill="none" stroke="#000000" d="M0 0H62.808"/>
<path transform="matrix(1,0,0,-1,1.6930313,586.6982)" d="M2.5512-2.5512V35.324H484.4472V-2.5512Z" fill="#0e4182" fill-opacity=".5"/>
<path transform="matrix(1,0,0,-1,1.6930313,586.6982)" d="M0 0V37.87521H481.89598V0Z" fill="#0e4182"/>
<path transform="matrix(1,0,0,-1,1.6930313,586.6982)" d="M1.41731 1.41731V36.4579H480.47868V1.41731Z" fill="#ffffff"/>
<path transform="matrix(1,0,0,-1,3.1100314,550.4392)" stroke-width=".398" stroke-linecap="butt" stroke-miterlimit="10" stroke-linejoin="miter" fill="none" stroke="#0e4182" d="M0 0H480.472"/>
<path transform="matrix(1,0,0,-1,3.3090316,584.8822)" stroke-width=".398" stroke-linecap="butt" stroke-miterlimit="10" stroke-linejoin="miter" fill="none" stroke="#0e4182" d="M0 0V34.243"/>
<text fill="#0e4182" xml:space="preserve" transform="matrix(1 0 -0 1 -54.99997 614.2222)" font-size="10.9091" font-family="F91"><tspan y="-42.591" x="62.716 71.148738 75.65419 81.67601 87.09783 92.51965 98.54147 103.35239 109.37421 115.39603">&#x041e;&#x0433;&#x043b;&#x0430;&#x0432;&#x043b;&#x0435;&#x043d;&#x0438;&#x0435;</tspan></text>
<path transform="matrix(1,0,0,-1,70.63303,584.8822)" stroke-width=".398" stroke-linecap="butt" stroke-miterlimit="10" stroke-linejoin="miter" fill="none" stroke="#0e4182" d="M0 0V34.243"/>
<text fill="#0e4182" xml:space="preserve" transform="matrix(1 0 -0 1 -54.99997 614.2222)" font-size="11.9552" font-family="F70"><tspan y="-43.36" x="133.701 148.04724 162.40544">&#x003c;&#x003c;&#x003c;</tspan></text>
<path transform="matrix(1,0,0,-1,126.96303,584.8822)" stroke-width=".398" stroke-linecap="butt" stroke-miterlimit="10" stroke-linejoin="miter" fill="none" stroke="#0e4182" d="M0 0V34.243"/>
<text fill="#0e4182" xml:space="preserve" transform="matrix(1 0 -0 1 -54.99997 614.2222)" font-size="11.9552" font-family="F70"><tspan y="-43.36" x="197.21 211.55625">&#x003c;&#x003c;</tspan></text>
<path transform="matrix(1,0,0,-1,183.29303,584.8822)" stroke-width=".398" stroke-linecap="butt" stroke-miterlimit="10" stroke-linejoin="miter" fill="none" stroke="#0e4182" d="M0 0V34.243"/>
<text fill="#0e4182" xml:space="preserve" transform="matrix(1 0 -0 1 -54.99997 614.2222)" font-size="11.9552" font-family="F70"><tspan y="-43.36" x="252.791">&#x003c;</tspan></text>
<path transform="matrix(1,0,0,-1,223.13105,584.8822)" stroke-width=".398" stroke-linecap="butt" stroke-miterlimit="10" stroke-linejoin="miter" fill="none" stroke="#0e4182" d="M0 0V34.243"/>
<text fill="#0e4182" xml:space="preserve" transform="matrix(1 0 -0 1 -54.99997 614.2222)" font-size="11.9552" font-family="F42"><tspan y="-51.271" x="289.081 294.9271 300.7732">500</tspan><tspan y="-42.494" x="293.14399">&#x2014;</tspan><tspan y="-33.718" x="286.15498 292.00108 297.84718 303.69328">1258</tspan></text>
<path transform="matrix(1,0,0,-1,262.97004,584.8822)" stroke-width=".398" stroke-linecap="butt" stroke-miterlimit="10" stroke-linejoin="miter" fill="none" stroke="#0e4182" d="M0 0V34.243"/>
<text fill="#0e4182" xml:space="preserve" transform="matrix(1 0 -0 1 -54.99997 614.2222)" font-size="11.9552" font-family="F70"><tspan y="-43.36" x="332.468">&#x003e;</tspan></text>
<path transform="matrix(1,0,0,-1,302.80903,584.8822)" stroke-width=".398" stroke-linecap="butt" stroke-miterlimit="10" stroke-linejoin="miter" fill="none" stroke="#0e4182" d="M0 0V34.243"/>
<text fill="#0e4182" xml:space="preserve" transform="matrix(1 0 -0 1 -54.99997 614.2222)" font-size="11.9552" font-family="F70"><tspan y="-43.36" x="373.056 387.40226">&#x003e;&#x003e;</tspan></text>
<path transform="matrix(1,0,0,-1,359.13804,584.8822)" stroke-width=".398" stroke-linecap="butt" stroke-miterlimit="10" stroke-linejoin="miter" fill="none" stroke="#0e4182" d="M0 0V34.243"/>
<text fill="#0e4182" xml:space="preserve" transform="matrix(1 0 -0 1 -54.99997 614.2222)" font-size="11.9552" font-family="F70"><tspan y="-43.36" x="422.206 436.55226 450.91047">&#x003e;&#x003e;&#x003e;</tspan></text>
<path transform="matrix(1,0,0,-1,415.46803,584.8822)" stroke-width=".398" stroke-linecap="butt" stroke-miterlimit="10" stroke-linejoin="miter" fill="none" stroke="#0e4182" d="M0 0V34.243"/>
<text fill="#0e4182" xml:space="preserve" transform="matrix(1 0 -0 1 -54.99997 614.2222)" font-size="10.9091" font-family="F91"><tspan y="-50.426" x="473.338 481.15986 487.18168 493.2035 498.6253 504.04713 509.46894 515.4908 521.51266 529.3345">&#x0421;&#x043f;&#x0440;&#x0430;&#x0432;&#x043e;&#x0447;&#x043d;&#x044b;&#x0439;</tspan><tspan y="-36.877" x="481.17 488.39186 493.81367 499.23548 504.0464 510.0682 516.09 521.51187">&#x043c;&#x0430;&#x0442;&#x0435;&#x0440;&#x0438;&#x0430;&#x043b;</tspan></text>
<path transform="matrix(1,0,0,-1,482.79203,584.8822)" stroke-width=".398" stroke-linecap="butt" stroke-miterlimit="10" stroke-linejoin="miter" fill="none" stroke="#0e4182" d="M0 0V34.243"/>
<path transform="matrix(1,0,0,-1,3.1100312,585.08126)" stroke-width=".398" stroke-linecap="butt" stroke-miterlimit="10" stroke-linejoin="miter" fill="none" stroke="#0e4182" d="M0 0H480.472"/>
</g>
</g>
</svg>
